<svg width="24" height="24" viewBox="0 0 24 24" fill="none" xmlns="http://www.w3.org/2000/svg">
<path d="M12.9258 3.20996V4.50977H5.01562V19.1797H17.001V9.88574H18.3008V20.4795H15.9355V22.6504H1.34961V5.38086H3.71582V3.20996H12.9258ZM2.65039 21.3496H14.6348V20.4795H3.71582V6.68066H2.65039V21.3496ZM13.6475 13.7041V15.0039H8.36914V13.7041H13.6475ZM13.6475 10.8486V12.1484H8.36914V10.8486H13.6475ZM13.6475 7.99316V9.29297H8.36914V7.99316H13.6475ZM21.3496 4.78613C21.3496 3.07578 19.907 1.65043 18.0781 1.65039C16.2492 1.65039 14.8057 3.07576 14.8057 4.78613C14.8059 6.49635 16.2494 7.92188 18.0781 7.92188C19.9069 7.92184 21.3494 6.49632 21.3496 4.78613ZM20.0898 4.09863L17.8535 6.84766L16.1143 5.14648L17.0225 4.2168L17.7432 4.92188L19.082 3.27832L20.0898 4.09863ZM22.6504 4.78613C22.6502 7.2572 20.5811 9.22164 18.0781 9.22168C15.5751 9.22168 13.5061 7.25723 13.5059 4.78613C13.5059 2.31487 15.575 0.349609 18.0781 0.349609C20.5813 0.349647 22.6504 2.31489 22.6504 4.78613Z" fill="white"/>
</svg>
