<svg width="24" height="24" viewBox="0 0 24 24" fill="none" xmlns="http://www.w3.org/2000/svg">
<path d="M16.1038 14.3077L19.7403 11.1828L21.9615 11.375L17.8883 14.902L19.0923 20.1828L17.2058 19.0365L16.1038 14.3077ZM13.975 7.70975L12.9635 5.3365L13.8153 3.279L15.7595 7.877L13.975 7.70975ZM7.35 16.825L10.5 14.925L13.65 16.85L12.825 13.25L15.6 10.85L11.95 10.525L10.5 7.125L9.05 10.5L5.4 10.825L8.175 13.25L7.35 16.825ZM5.075 19.9615L6.50775 13.7923L1.72125 9.64425L8.0365 9.09625L10.5 3.279L12.9635 9.09625L19.2788 9.64425L14.4923 13.7923L15.925 19.9615L10.5 16.6885L5.075 19.9615Z" fill="white"/>
</svg>
