<svg width="24" height="24" viewBox="0 0 24 24" fill="none" xmlns="http://www.w3.org/2000/svg">
<path d="M12.9845 21.45V19.95C13.7102 19.8437 14.4022 19.652 15.0605 19.375C15.7188 19.098 16.3268 18.7461 16.8845 18.3193L17.9595 19.4038C17.234 19.9756 16.4565 20.4313 15.627 20.771C14.7975 21.1108 13.9167 21.3372 12.9845 21.45ZM19.3885 17.9538L18.3345 16.9C18.7678 16.35 19.1178 15.7458 19.3845 15.0875C19.6512 14.4292 19.8345 13.7333 19.9345 13H21.4653C21.3513 13.9372 21.1196 14.8228 20.7703 15.6568C20.4208 16.4908 19.9602 17.2564 19.3885 17.9538ZM19.9345 11C19.8345 10.25 19.6512 9.54583 19.3845 8.8875C19.1178 8.22917 18.7678 7.63333 18.3345 7.1L19.398 6.05575C19.9993 6.80192 20.4686 7.56733 20.8058 8.352C21.1429 9.1365 21.3628 10.0192 21.4653 11H19.9345ZM10.9845 21.45C8.57567 21.1563 6.56517 20.1159 4.953 18.3288C3.34084 16.5416 2.53475 14.432 2.53475 12C2.53475 9.55767 3.33917 7.44133 4.948 5.651C6.557 3.86067 8.56917 2.827 10.9845 2.55V4.05C8.9845 4.33333 7.32617 5.225 6.0095 6.725C4.69284 8.225 4.0345 9.98333 4.0345 12C4.0345 14.0167 4.69284 15.7708 6.0095 17.2625C7.32617 18.7542 8.9845 19.65 10.9845 19.95V21.45ZM16.9345 5.7C16.3345 5.25 15.7028 4.88333 15.0395 4.6C14.376 4.31667 13.6974 4.13333 13.0038 4.05V2.55C13.9166 2.64617 14.7862 2.86575 15.6125 3.20875C16.4388 3.55158 17.2212 4.01408 17.9595 4.59625L16.9345 5.7ZM12 16.5095C11.1295 15.7633 10.3093 14.9685 9.5395 14.125C8.76967 13.2813 8.38475 12.2923 8.38475 11.1578C8.38475 10.1334 8.73375 9.25967 9.43175 8.5365C10.1298 7.8135 10.9858 7.452 12 7.452C13.0142 7.452 13.8703 7.8135 14.5683 8.5365C15.2663 9.25967 15.6153 10.1334 15.6153 11.1578C15.6153 12.2923 15.2303 13.2813 14.4605 14.125C13.6907 14.9685 12.8705 15.7633 12 16.5095ZM12 11.9905C12.2743 11.9905 12.5045 11.8975 12.6905 11.7115C12.8763 11.5257 12.9693 11.2956 12.9693 11.0212C12.9693 10.7571 12.8763 10.5295 12.6905 10.3385C12.5045 10.1475 12.2743 10.052 12 10.052C11.7257 10.052 11.4955 10.1475 11.3095 10.3385C11.1237 10.5295 11.0308 10.7571 11.0308 11.0212C11.0308 11.2956 11.1237 11.5257 11.3095 11.7115C11.4955 11.8975 11.7257 11.9905 12 11.9905Z" fill="white"/>
</svg>
