<svg width="24" height="24" viewBox="0 0 24 24" fill="none" xmlns="http://www.w3.org/2000/svg">
<path d="M4.20734 8.56305C4.31288 8.6228 4.42755 8.65217 4.54019 8.65217C4.77257 8.65217 4.99886 8.53165 5.12267 8.31491C5.88476 6.98813 6.98884 5.88316 8.31616 5.1195C8.63683 4.93517 8.74744 4.52498 8.56275 4.20494C8.37806 3.88489 7.9681 3.77449 7.64641 3.95882C6.11309 4.83997 4.83853 6.11611 3.95872 7.64848C3.77403 7.96954 3.88566 8.37872 4.20734 8.56203V8.56305Z" fill="white"/>
<path d="M8.31188 18.8507C7.00143 18.0918 5.90119 16.9964 5.13112 15.6836C4.9404 15.3585 4.52409 15.2508 4.20212 15.4434C3.88014 15.636 3.7735 16.0553 3.96423 16.3814C4.85324 17.8972 6.12267 19.1624 7.63717 20.0393C7.74381 20.1014 7.85968 20.1304 7.9735 20.1304C8.20832 20.1304 8.43698 20.0072 8.56208 19.7867C8.7487 19.4585 8.6359 19.0402 8.31188 18.8528V18.8507Z" fill="white"/>
<path d="M19.7858 15.4379C19.4576 15.2513 19.0393 15.3641 18.8519 15.689C18.093 17 16.9975 18.0999 15.6836 18.8697C15.3585 19.0603 15.2508 19.4765 15.4434 19.7983C15.5718 20.0115 15.7996 20.1304 16.0336 20.1304C16.1526 20.1304 16.2717 20.0997 16.3815 20.0361C17.8983 19.1474 19.1636 17.8764 20.0395 16.3624C20.2279 16.0375 20.114 15.6244 19.7858 15.4379Z" fill="white"/>
<path d="M15.6884 5.14733C16.998 5.90777 18.0969 7.00387 18.8658 8.31547C18.9923 8.532 19.2194 8.65217 19.4517 8.65217C19.5689 8.65217 19.6882 8.62109 19.7961 8.55686C20.1199 8.36416 20.2268 7.94458 20.0356 7.61927C19.1475 6.10461 17.879 4.8386 16.3669 3.9611C16.0421 3.77254 15.6257 3.88443 15.4387 4.21285C15.2516 4.54023 15.3626 4.95981 15.6884 5.14837V5.14733Z" fill="white"/>
<path d="M16.5149 14.0762L16.1624 13.7236H16.6603C16.9919 13.7236 17.2609 13.4547 17.2609 13.123V10.876C17.2609 10.5444 16.9919 10.2755 16.6603 10.2755H16.1624L16.5149 9.92291C16.7493 9.68849 16.7493 9.30778 16.5149 9.07336L14.9257 7.4851C14.6913 7.25068 14.3106 7.25068 14.0762 7.4851L13.7236 7.83764V7.33972C13.7236 7.00808 13.4547 6.73913 13.1231 6.73913H10.8761C10.5444 6.73913 10.2755 7.00808 10.2755 7.33972V7.83764L9.92292 7.4851C9.6885 7.25068 9.30779 7.25068 9.07337 7.4851L7.48512 9.07336C7.25069 9.30778 7.25069 9.68849 7.48512 9.92291L7.83766 10.2755H7.33974C7.00809 10.2755 6.73914 10.5444 6.73914 10.876V13.123C6.73914 13.4547 7.00809 13.7236 7.33974 13.7236H7.83766L7.48512 14.0762C7.25069 14.3106 7.25069 14.6913 7.48512 14.9257L9.07337 16.5149C9.30779 16.7493 9.6885 16.7493 9.92292 16.5149L10.2755 16.1624V16.6603C10.2755 16.9919 10.5444 17.2609 10.8761 17.2609H13.1231C13.4547 17.2609 13.7236 16.9919 13.7236 16.6603V16.1624L14.0762 16.5149C14.3106 16.7493 14.6913 16.7493 14.9257 16.5149L16.5149 14.9257C16.7493 14.6913 16.7493 14.3106 16.5149 14.0762ZM16.0597 12.5225H15.6308C15.3673 12.5225 15.1347 12.6942 15.0575 12.945C14.9993 13.1321 14.923 13.3157 14.8303 13.491C14.7068 13.7236 14.7504 14.0108 14.9366 14.197L15.2401 14.5005L14.5014 15.2401L14.197 14.9357C14.0108 14.7495 13.7246 14.7068 13.491 14.8294C13.3157 14.9221 13.1321 14.9984 12.9459 15.0566C12.6942 15.1347 12.5225 15.3673 12.5225 15.6299V16.0588H11.4776V15.6299C11.4776 15.3664 11.3058 15.1338 11.0551 15.0566C10.8679 14.9984 10.6843 14.9221 10.509 14.8294C10.2755 14.7058 9.98925 14.7486 9.80299 14.9357L9.4986 15.2401L8.75899 14.5005L9.06247 14.197C9.24873 14.0108 9.29235 13.7245 9.16878 13.491C9.0761 13.3157 8.99977 13.1321 8.94162 12.945C8.86348 12.6933 8.63088 12.5225 8.36829 12.5225H7.93942V11.4766H8.36829C8.63178 11.4766 8.86439 11.3058 8.94162 11.0541C8.99977 10.867 9.0761 10.6834 9.16878 10.5081C9.29235 10.2754 9.24873 9.98833 9.06247 9.80206L8.75899 9.49859L9.4986 8.75898L9.80299 9.06245C9.98925 9.24872 10.2755 9.29142 10.509 9.16876C10.6843 9.07608 10.8679 8.99976 11.0551 8.94161C11.3067 8.86347 11.4776 8.63086 11.4776 8.36827V7.93941H12.5225V8.36827C12.5225 8.63177 12.6942 8.86438 12.9459 8.94161C13.1331 8.99976 13.3166 9.07608 13.491 9.16876C13.7246 9.29233 14.0108 9.24872 14.197 9.06245L14.5014 8.75898L15.2401 9.49859L14.9366 9.80206C14.7504 9.98833 14.7068 10.2745 14.8303 10.5081C14.923 10.6834 14.9993 10.867 15.0575 11.0541C15.1356 11.3058 15.3682 11.4766 15.6308 11.4766H16.0597V12.5225Z" fill="white"/>
<path d="M12 9.6087C10.6818 9.6087 9.60871 10.6818 9.60871 12C9.60871 13.3182 10.6818 14.3913 12 14.3913C13.3182 14.3913 14.3913 13.3182 14.3913 12C14.3913 10.6818 13.3182 9.6087 12 9.6087ZM12 13.059C11.4171 13.059 10.942 12.584 10.942 12.001C10.942 11.4181 11.4171 10.943 12 10.943C12.583 10.943 13.058 11.4181 13.058 12.001C13.058 12.584 12.583 13.059 12 13.059Z" fill="white"/>
<path d="M20.5431 13.4348L20.9387 16.8762L17.7605 15.4982L20.5431 13.4348Z" fill="white"/>
<path d="M10.4452 21.1809L7.00459 20.7785L9.07337 18L10.4452 21.1809Z" fill="white"/>
<path d="M10.4452 21.1809L7.00459 20.7785L9.07337 18L10.4452 21.1809Z" fill="white"/>
<path d="M3.40572 10.78L2.99997 7.33972L6.1822 8.70846L3.40572 10.78Z" fill="white"/>
<path d="M3.40572 10.78L2.99997 7.33972L6.1822 8.70846L3.40572 10.78Z" fill="white"/>
<path d="M13.491 3.31117L16.9512 3.1459L15.3643 6.22512L13.491 3.31117Z" fill="white"/>
<path d="M13.491 3.31117L16.9512 3.1459L15.3643 6.22512L13.491 3.31117Z" fill="white"/>
</svg>
