<svg width="33" height="30" viewBox="0 0 33 30" fill="none" xmlns="http://www.w3.org/2000/svg">
<path d="M0 29.1667V0H15.63V6.7625H32.115V29.1667H0ZM2.09375 27.0725H6.77333V22.3929H2.09375V27.0725ZM2.09375 20.2992H6.77333V15.63H2.09375V20.2992ZM2.09375 13.5363H6.77333V8.85667H2.09375V13.5363ZM2.09375 6.7625H6.77333V2.09375H2.09375V6.7625ZM8.8675 27.0725H13.5363V22.3929H8.8675V27.0725ZM8.8675 20.2992H13.5363V15.63H8.8675V20.2992ZM8.8675 13.5363H13.5363V8.85667H8.8675V13.5363ZM8.8675 6.7625H13.5363V2.09375H8.8675V6.7625ZM15.63 27.0725H30.0213V8.85667H15.63V13.5363H19.2842V15.63H15.63V20.2992H19.2842V22.3929H15.63V27.0725ZM23.4508 15.63V13.5363H25.5446V15.63H23.4508ZM23.4508 22.3929V20.2992H25.5446V22.3929H23.4508Z" fill="white"/>
</svg>
