<svg width="24" height="24" viewBox="0 0 24 24" fill="none" xmlns="http://www.w3.org/2000/svg">
<path d="M7.06433 11.837C7.45927 12.2287 7.91686 12.5549 8.41962 12.7992C9.07053 13.1126 9.79646 13.2904 10.5644 13.2904C10.7416 13.2904 10.9164 13.2796 11.0888 13.2613C11.1832 13.7277 11.3342 14.1735 11.5339 14.5914C11.2173 14.6404 10.8939 14.6687 10.5644 14.6687C9.58285 14.6687 8.65415 14.4412 7.82472 14.0418L7.82025 14.0396C7.5261 13.8966 7.24505 13.7306 6.97823 13.5461C6.04959 14.2761 5.33399 15.2825 4.95537 16.4451C4.7603 17.0439 4.65463 17.685 4.65457 18.3528V19.3049C4.95518 19.3821 5.3375 19.4658 5.79515 19.5449C6.98325 19.7503 8.62494 19.9217 10.5632 19.9217C12.5012 19.9217 14.142 19.7503 15.3302 19.5449C15.7877 19.4658 16.1703 19.382 16.4708 19.3049V19.3528C16.4708 19.1827 16.463 19.0144 16.4496 18.8481C16.5326 18.8517 16.6161 18.8548 16.7 18.8548C17.0832 18.8548 17.4573 18.8158 17.8194 18.7438C17.8354 18.9447 17.8451 19.1478 17.8451 19.3528V20.2626C17.4381 20.5874 14.5946 21.2999 10.5632 21.3L9.82075 21.2921C6.18517 21.2126 3.66352 20.5671 3.28027 20.2626V18.3528C3.28033 17.5375 3.40977 16.7519 3.64929 16.0167C4.2327 14.2253 5.4678 12.7347 7.06433 11.837Z" fill="white"/>
<path d="M10.7813 3.50561C12.6748 3.59925 14.2548 4.92083 14.7767 6.70404C14.3288 6.86427 13.9061 7.07776 13.5176 7.3388C13.225 5.92105 11.9981 4.87862 10.5666 4.87829C9.00749 4.87829 7.68588 6.1134 7.55523 7.72458L7.55635 7.72571C7.54817 7.83259 7.54405 7.91384 7.54405 7.98477C7.54411 8.65484 7.75024 9.27079 8.10092 9.77688L8.25971 9.98771L8.26754 9.99669L8.40061 10.1458L8.41179 10.1571L8.58176 10.3219L8.58399 10.3253C8.72876 10.4548 8.88663 10.5711 9.05365 10.6718C9.49719 10.9387 10.0126 11.0912 10.5666 11.0912C10.7398 11.0912 10.909 11.0733 11.0743 11.0441C11.0093 11.3905 10.9748 11.7476 10.9748 12.1129C10.9748 12.2243 10.9786 12.335 10.9848 12.4449C10.8471 12.4583 10.7078 12.4684 10.5666 12.4684C9.7565 12.4684 8.99685 12.2445 8.34581 11.8527C8.10456 11.7072 7.87766 11.539 7.66929 11.3525C7.5836 11.2763 7.50128 11.1963 7.42104 11.1126C7.34427 11.0342 7.27022 10.9516 7.20076 10.8658C6.59728 10.1345 6.21914 9.20619 6.17423 8.18887L6.16976 7.98477L6.18653 7.62029C6.36957 5.31756 8.26233 3.5 10.5666 3.5L10.7813 3.50561Z" fill="white"/>
<path d="M17.3044 7.51935C20.0526 7.51935 22.2803 9.75352 22.2803 12.5097C22.2803 15.2658 20.0526 17.5 17.3044 17.5C14.5563 17.5 12.3286 15.2658 12.3286 12.5097C12.3286 9.75352 14.5563 7.51935 17.3044 7.51935ZM17.5884 15.1954C17.4191 15.0413 17.1571 15.0541 17.0031 15.2236L16.9977 15.229C16.8438 15.399 16.8564 15.6626 17.0258 15.8171C17.1953 15.9711 17.4583 15.9587 17.6122 15.7889L17.6165 15.7835C17.7702 15.6136 17.7575 15.3499 17.5884 15.1954ZM17.1802 9.28676C16.7551 9.28681 16.314 9.42254 15.9719 9.71345C15.6207 10.0123 15.3974 10.4566 15.3974 11.013C15.3977 11.2425 15.5832 11.4289 15.8121 11.4289C16.0407 11.4286 16.2265 11.2423 16.2267 11.013C16.2267 10.6962 16.3456 10.4848 16.5075 10.347C16.6784 10.2017 16.9217 10.1185 17.1802 10.1185C17.4388 10.1186 17.6821 10.2017 17.853 10.347C18.0148 10.4848 18.1337 10.6963 18.1337 11.013C18.1337 11.2462 18.0784 11.3836 18.0095 11.4874C17.9285 11.6092 17.8203 11.704 17.65 11.8577C17.4916 12.0007 17.2905 12.1868 17.1381 12.4566C16.9817 12.7338 16.8898 13.072 16.8898 13.5082C16.89 13.7375 17.0758 13.9238 17.3044 13.924C17.533 13.9237 17.7188 13.7375 17.7191 13.5082C17.7191 13.196 17.7838 13.0031 17.8605 12.8671C17.9413 12.724 18.0516 12.6136 18.2039 12.4761C18.3443 12.3494 18.5475 12.1774 18.6996 11.9487C18.8635 11.7019 18.963 11.4026 18.963 11.013C18.963 10.4569 18.7405 10.0123 18.3896 9.71345C18.0476 9.4224 17.6054 9.28688 17.1802 9.28676Z" fill="white"/>
</svg>
