<svg width="24" height="24" viewBox="0 0 24 24" fill="none" xmlns="http://www.w3.org/2000/svg">
<path d="M8.98735 13.7425C8.98732 11.6074 7.30335 9.87648 5.22648 9.87625C3.14942 9.87625 1.46565 11.6073 1.46562 13.7425C1.46562 15.8779 3.1494 17.6088 5.22648 17.6088C7.30337 17.6086 8.98735 15.8777 8.98735 13.7425ZM7.98386 12.2754L5.48285 15.5467C5.35306 15.7166 5.15893 15.8217 4.9492 15.8341C4.73932 15.8463 4.53358 15.765 4.38584 15.6112L2.97634 14.143L2.4614 13.6079L3.50339 12.5492L4.84357 13.945L6.83184 11.3456L7.98386 12.2754ZM20.6617 14.1204V15.6259H11.8603V14.1204H20.6617ZM18.2828 11.4282V12.9338H11.8603V11.4282H18.2828ZM22.5344 3.98518C22.5341 3.72069 22.3261 3.50695 22.069 3.5067H2.75958C2.50221 3.50684 2.29329 3.72078 2.29305 3.98518V5.44777H22.5344V3.98518ZM2.29305 9.29597C3.12929 8.71189 4.1393 8.37068 5.22648 8.37068C8.1123 8.37091 10.4518 10.7758 10.4519 13.7425C10.4519 16.7093 8.11232 19.1142 5.22648 19.1144C4.13905 19.1144 3.1294 18.7723 2.29305 18.188V20.0148C2.29305 20.2796 2.50221 20.4943 2.75958 20.4944H22.069C22.3264 20.4942 22.5344 20.2794 22.5344 20.0148V6.95334H2.29305V9.29597ZM24 20.0148C24 21.1104 23.1359 21.9998 22.069 22H2.75958C1.69384 21.9999 0.828535 21.1118 0.828535 20.0148V18.0477H2.09939C0.825106 17.0681 0 15.5042 0 13.7425C1.87997e-05 11.8953 0.907581 10.2662 2.28865 9.29936H0.828535V3.98518C0.828773 2.88973 1.69269 2.00013 2.75958 2H22.069C23.1345 2.00024 23.9998 2.88847 24 3.98518V20.0148Z" fill="white"/>
<path d="M22.1405 4.49081C22.1405 4.81067 21.8882 5.06996 21.5771 5.06996C21.266 5.06996 21.0138 4.81067 21.0138 4.49081C21.0138 4.17095 21.266 3.91166 21.5771 3.91166C21.8882 3.91166 22.1405 4.17095 22.1405 4.49081Z" fill="white"/>
<path d="M19.887 4.49081C19.887 4.81067 19.6348 5.06996 19.3237 5.06996C19.0125 5.06996 18.7603 4.81067 18.7603 4.49081C18.7603 4.17095 19.0125 3.91166 19.3237 3.91166C19.6348 3.91166 19.887 4.17095 19.887 4.49081Z" fill="white"/>
<path d="M17.6336 4.49081C17.6336 4.81067 17.3814 5.06996 17.0702 5.06996C16.7591 5.06996 16.5069 4.81067 16.5069 4.49081C16.5069 4.17095 16.7591 3.91166 17.0702 3.91166C17.3814 3.91166 17.6336 4.17095 17.6336 4.49081Z" fill="white"/>
</svg>
