<svg width="36" height="36" viewBox="0 0 36 36" fill="none" xmlns="http://www.w3.org/2000/svg">
<path d="M18.4725 3C19.4881 3.02976 20.4777 3.16369 21.4338 3.3869L20.7679 5.87202C20.0275 5.70461 19.2574 5.60045 18.4725 5.57068V3ZM22.3415 3.62872C23.3051 3.9189 24.2277 4.30208 25.0982 4.77083L23.811 6.99926C23.1339 6.64211 22.4196 6.34449 21.6719 6.11384L22.3378 3.62872H22.3415ZM25.9092 5.2433C26.7574 5.77158 27.5498 6.3817 28.2753 7.0625L26.4561 8.8817C25.8906 8.35714 25.2768 7.88467 24.622 7.47173L25.9092 5.2433ZM28.9412 7.7247C29.622 8.45015 30.2321 9.24256 30.7604 10.0908L28.532 11.378C28.119 10.7232 27.6466 10.1094 27.122 9.5439L28.9412 7.7247ZM31.2292 10.9018C31.6979 11.7723 32.0811 12.6949 32.3713 13.6585L29.8862 14.3244C29.6555 13.5804 29.3579 12.8661 29.0007 12.1853L31.2292 10.8981V10.9018ZM32.6131 14.5662C32.8363 15.5223 32.9665 16.5119 33 17.5275H30.4256C30.3958 16.7426 30.2954 15.9762 30.1243 15.2321L32.6094 14.5662H32.6131ZM33 18.465C32.8772 22.4196 31.2254 25.9911 28.6138 28.6064C25.8981 31.3222 22.1481 33 18.0037 33C13.8594 33 10.1094 31.3222 7.3936 28.6064C4.67783 25.8906 3 22.1406 3 17.9963C3 13.8519 4.67783 10.1019 7.3936 7.38616C10.0052 4.77455 13.5766 3.11905 17.535 3V5.5744C14.2872 5.69345 11.3594 7.05878 9.2128 9.20536C6.96206 11.4561 5.57069 14.5625 5.57069 17.9963C5.57069 21.4301 6.96206 24.5365 9.2128 26.7872C11.4635 29.0379 14.5699 30.4293 18.0037 30.4293C21.4375 30.4293 24.5439 29.0379 26.7946 26.7872C28.9412 24.6406 30.3065 21.7128 30.4256 18.465H33Z" fill="#8999AF"/>
<path fill-rule="evenodd" clip-rule="evenodd" d="M18.0037 8.51714C23.2381 8.51714 27.4829 12.7619 27.4829 17.9963C27.4829 23.2307 23.2381 27.4755 18.0037 27.4755C12.7694 27.4755 8.52459 23.2307 8.52459 17.9963C8.52459 12.7619 12.7694 8.51714 18.0037 8.51714ZM21.4487 14.4584C21.9881 13.9189 22.8661 13.9189 23.4055 14.4584C23.945 14.9978 23.945 15.8758 23.4055 16.4152L17.5834 22.2374C17.0439 22.7768 16.166 22.7768 15.6265 22.2374L12.6057 19.2165C12.0663 18.6771 12.0663 17.7991 12.6057 17.2597C13.1451 16.7203 14.0231 16.7203 14.5625 17.2597L16.6049 19.3021L21.4487 14.4584Z" fill="#8999AF"/>
</svg>
