<svg width="24" height="24" viewBox="0 0 24 24" fill="none" xmlns="http://www.w3.org/2000/svg">
<path d="M10.915 16.667C10.915 13.3762 13.5285 10.6838 16.7822 10.6836C17.0034 10.6836 17.2219 10.6965 17.4365 10.7207V8.7832H11.8262C11.4673 8.7832 11.176 8.49257 11.1758 8.13379V2.65039H4.65039V18.9502H11.3584C11.0728 18.2458 10.9151 17.4744 10.915 16.667ZM17.4326 14.2988V16.0166H19.1016V17.3164H17.4326V19.0371H16.1328V17.3164H14.4639V16.0166H16.1328V14.2988H17.4326ZM12.4766 7.4834H16.4941L12.4766 3.54688V7.4834ZM12.2148 16.667C12.215 19.2668 14.2734 21.3494 16.7822 21.3496C19.2912 21.3496 21.3494 19.2669 21.3496 16.667C21.3496 14.0669 19.2913 11.9834 16.7822 11.9834C14.2733 11.9836 12.2148 14.067 12.2148 16.667ZM18.7373 11.0234C21.0225 11.8461 22.6504 14.0701 22.6504 16.667C22.6502 19.9578 20.036 22.6504 16.7822 22.6504C14.8545 22.6503 13.1518 21.7047 12.084 20.25H4C3.64101 20.25 3.34961 19.9586 3.34961 19.5996V2C3.34961 1.64101 3.64101 1.34961 4 1.34961H11.8262L11.9521 1.3623C12.0754 1.38667 12.1902 1.44695 12.2812 1.53613L18.542 7.66895C18.6668 7.7912 18.7373 7.95911 18.7373 8.13379V11.0234Z" fill="white"/>
</svg>
