<svg width="24" height="24" viewBox="0 0 24 24" fill="none" xmlns="http://www.w3.org/2000/svg">
<path d="M7 18H15C15.55 18 16.0208 17.8042 16.4125 17.4125C16.8042 17.0208 17 16.55 17 16V13H5V16C5 16.55 5.19583 17.0208 5.5875 17.4125C5.97917 17.8042 6.45 18 7 18ZM8.42775 16.4255C8.68108 16.1708 8.80775 15.8616 8.80775 15.4978C8.80775 15.1339 8.68033 14.8254 8.4255 14.5723C8.17083 14.3189 7.86158 14.1923 7.49775 14.1923C7.13392 14.1923 6.82542 14.3197 6.57225 14.5745C6.31892 14.8292 6.19225 15.1384 6.19225 15.5022C6.19225 15.8661 6.31967 16.1746 6.5745 16.4277C6.82917 16.6811 7.13842 16.8077 7.50225 16.8077C7.86608 16.8077 8.17458 16.6803 8.42775 16.4255ZM15.4277 16.4255C15.6811 16.1708 15.8077 15.8616 15.8077 15.4978C15.8077 15.1339 15.6803 14.8254 15.4255 14.5723C15.1708 14.3189 14.8616 14.1923 14.4977 14.1923C14.1339 14.1923 13.8254 14.3197 13.5723 14.5745C13.3189 14.8292 13.1923 15.1384 13.1923 15.5022C13.1923 15.8661 13.3197 16.1746 13.5745 16.4277C13.8292 16.6811 14.1384 16.8077 14.5023 16.8077C14.8661 16.8077 15.1746 16.6803 15.4277 16.4255ZM5.51925 21.5C5.30675 21.5 5.12867 21.4281 4.985 21.2843C4.84117 21.1406 4.76925 20.9625 4.76925 20.75V18.777C4.45642 18.5398 4.16667 18.2043 3.9 17.7703C3.63333 17.3362 3.5 16.8488 3.5 16.3077V7C3.5 5.78967 4.10158 4.90375 5.30475 4.34225C6.50792 3.78075 8.40633 3.5 11 3.5C11.4518 3.5 11.8776 3.50575 12.2773 3.51725C12.6771 3.52892 13.0584 3.55142 13.4212 3.58475C13.3429 3.82442 13.2852 4.06617 13.248 4.31C13.2108 4.55367 13.1923 4.80675 13.1923 5.06925C12.8833 5.04608 12.5487 5.02875 12.1885 5.01725C11.8282 5.00575 11.4423 5 11.0308 5C9.36275 5 8.06017 5.10417 7.123 5.3125C6.18583 5.52083 5.5705 5.83975 5.277 6.26925H13.3155C13.3693 6.50892 13.4418 6.75217 13.5328 6.999C13.6237 7.24583 13.7353 7.50258 13.8673 7.76925H5V11.5H16.4307L18.5 13.375V16.3077C18.5 16.8488 18.3667 17.3362 18.1 17.7703C17.8333 18.2043 17.5436 18.5398 17.2308 18.777V20.75C17.2308 20.9625 17.1588 21.1406 17.015 21.2843C16.8713 21.4281 16.6932 21.5 16.4808 21.5H15.8652C15.6529 21.5 15.4748 21.4281 15.331 21.2843C15.1873 21.1406 15.1155 20.9625 15.1155 20.75V19.5H6.8845V20.75C6.8845 20.9625 6.81267 21.1406 6.669 21.2843C6.52517 21.4281 6.34708 21.5 6.13475 21.5H5.51925ZM18.3548 5.73975C18.1824 5.56608 18.0962 5.351 18.0962 5.0945C18.0962 4.838 18.183 4.6235 18.3565 4.451C18.53 4.2785 18.7451 4.19225 19.0017 4.19225C19.2583 4.19225 19.4727 4.27908 19.6453 4.45275C19.8176 4.62625 19.9038 4.84125 19.9038 5.09775C19.9038 5.35442 19.817 5.56892 19.6435 5.74125C19.47 5.91375 19.2549 6 18.9983 6C18.7417 6 18.5273 5.91325 18.3548 5.73975ZM20.7173 3.40975C21.1877 3.90075 21.423 4.49242 21.423 5.18475C21.423 5.70008 21.2244 6.26567 20.8273 6.8815C20.4301 7.49717 19.8262 8.18092 19.0155 8.93275C18.1975 8.17125 17.5866 7.48508 17.1827 6.87425C16.7789 6.26358 16.577 5.70108 16.577 5.18675C16.577 4.49558 16.8123 3.90383 17.2828 3.4115C17.7533 2.91917 18.3257 2.673 19 2.673C19.6743 2.673 20.2467 2.91858 20.7173 3.40975ZM19 10.5192C20.2153 9.48458 21.1217 8.52467 21.7193 7.6395C22.3166 6.75417 22.6152 5.93525 22.6152 5.18275C22.6152 4.15942 22.2663 3.28658 21.5683 2.56425C20.8703 1.84192 20.0142 1.48075 19 1.48075C17.9858 1.48075 17.1298 1.84192 16.4318 2.56425C15.7338 3.28658 15.3848 4.15942 15.3848 5.18275C15.3848 5.93525 15.6834 6.75417 16.2807 7.6395C16.8783 8.52467 17.7847 9.48458 19 10.5192Z" fill="white"/>
</svg>
