<svg width="26" height="24" viewBox="0 0 26 24" fill="none" xmlns="http://www.w3.org/2000/svg">
<path d="M23.125 19.125C23.7083 18.5417 24 17.8333 24 17C24.55 17 25.0208 16.8042 25.4125 16.4125C25.8042 16.0208 26 15.55 26 15V8C26 7.45 25.8042 6.97917 25.4125 6.5875C25.0208 6.19583 24.55 6 24 6H10.825C10.5583 6 10.3042 6.05 10.0625 6.15C9.82083 6.25 9.60833 6.39167 9.425 6.575L4.575 11.425C4.39167 11.6083 4.25 11.8208 4.15 12.0625C4.05 12.3042 4 12.5583 4 12.825V15C4 15.55 4.19583 16.0208 4.5875 16.4125C4.97917 16.8042 5.45 17 6 17C6 17.8333 6.29167 18.5417 6.875 19.125C7.45833 19.7083 8.16667 20 9 20C9.83333 20 10.5417 19.7083 11.125 19.125C11.7083 18.5417 12 17.8333 12 17H18C18 17.8333 18.2917 18.5417 18.875 19.125C19.4583 19.7083 20.1667 20 21 20C21.8333 20 22.5417 19.7083 23.125 19.125ZM12 11H8L11 8H12V11ZM18 11H14V8H18V11ZM24 11H20V8H24V11ZM20.1125 17.8875C19.8708 17.6458 19.75 17.35 19.75 17C19.75 16.65 19.8708 16.3542 20.1125 16.1125C20.3542 15.8708 20.65 15.75 21 15.75C21.35 15.75 21.6458 15.8708 21.8875 16.1125C22.1292 16.3542 22.25 16.65 22.25 17C22.25 17.35 22.1292 17.6458 21.8875 17.8875C21.6458 18.1292 21.35 18.25 21 18.25C20.65 18.25 20.3542 18.1292 20.1125 17.8875ZM8.1125 17.8875C7.87083 17.6458 7.75 17.35 7.75 17C7.75 16.65 7.87083 16.3542 8.1125 16.1125C8.35417 15.8708 8.65 15.75 9 15.75C9.35 15.75 9.64583 15.8708 9.8875 16.1125C10.1292 16.3542 10.25 16.65 10.25 17C10.25 17.35 10.1292 17.6458 9.8875 17.8875C9.64583 18.1292 9.35 18.25 9 18.25C8.65 18.25 8.35417 18.1292 8.1125 17.8875Z" fill="#084382"/>
<path d="M2.26364 7C2.08788 7 1.93333 6.9432 1.8 6.82961C1.66667 6.71601 1.58485 6.57018 1.55455 6.39211L0.854545 2.56974C0.630303 2.61272 0.431818 2.56053 0.259091 2.41316C0.0863636 2.26579 0 2.07544 0 1.84211C0 1.63947 0.0712121 1.46601 0.213636 1.32171C0.356061 1.17741 0.527273 1.10526 0.727273 1.10526C0.927273 1.10526 1.09848 1.17741 1.24091 1.32171C1.38333 1.46601 1.45455 1.63947 1.45455 1.84211C1.45455 1.92807 1.44242 2.00789 1.41818 2.08158C1.39394 2.15526 1.35758 2.22281 1.30909 2.28421C1.44242 2.36404 1.57727 2.43004 1.71364 2.48224C1.85 2.53443 1.99394 2.56053 2.14545 2.56053C2.41212 2.56053 2.65909 2.49298 2.88636 2.35789C3.11364 2.22281 3.29091 2.0386 3.41818 1.80526L3.64545 1.38158C3.5303 1.31404 3.43939 1.225 3.37273 1.11447C3.30606 1.00395 3.27273 0.87807 3.27273 0.736842C3.27273 0.534211 3.34394 0.360746 3.48636 0.216447C3.62879 0.0721491 3.8 0 4 0C4.2 0 4.37121 0.0721491 4.51364 0.216447C4.65606 0.360746 4.72727 0.534211 4.72727 0.736842C4.72727 0.87807 4.69394 1.00395 4.62727 1.11447C4.56061 1.225 4.4697 1.31404 4.35455 1.38158L4.58182 1.80526C4.70909 2.0386 4.88636 2.22281 5.11364 2.35789C5.34091 2.49298 5.58788 2.56053 5.85455 2.56053C6.00606 2.56053 6.15 2.53596 6.28636 2.48684C6.42273 2.43772 6.55758 2.37325 6.69091 2.29342C6.64242 2.23202 6.60606 2.16294 6.58182 2.08618C6.55758 2.00943 6.54545 1.92807 6.54545 1.84211C6.54545 1.63947 6.61667 1.46601 6.75909 1.32171C6.90152 1.17741 7.07273 1.10526 7.27273 1.10526C7.47273 1.10526 7.64394 1.17741 7.78636 1.32171C7.92879 1.46601 8 1.63947 8 1.84211C8 2.07544 7.91364 2.26579 7.74091 2.41316C7.56818 2.56053 7.3697 2.61272 7.14545 2.56974L6.44545 6.39211C6.41515 6.57018 6.33333 6.71601 6.2 6.82961C6.06667 6.9432 5.91212 7 5.73636 7H2.26364Z" fill="#ADB5BD"/>
</svg>
