<svg width="24" height="24" viewBox="0 0 24 24" fill="none" xmlns="http://www.w3.org/2000/svg">
<path d="M13.9327 13.1442L11.25 10.452V6.38475H12.75V9.82875L14.9865 12.0905L13.9327 13.1442ZM4.5 10.025H6C6 10.6378 6.07917 11.2266 6.2375 11.7913C6.39583 12.3561 6.64167 12.8898 6.975 13.3923C7.46083 14.1308 8.01658 14.8029 8.64225 15.4087C9.26792 16.0144 9.86925 16.6461 10.4463 17.3038C10.7398 17.6398 11.0108 17.9821 11.2595 18.3307C11.5083 18.6796 11.7468 19.0398 11.975 19.4115C12.1892 19.0398 12.4273 18.6812 12.6895 18.3355C12.9517 17.99 13.2244 17.6461 13.5078 17.3038C14.0846 16.6526 14.6852 16.0251 15.3095 15.4212C15.934 14.8174 16.4911 14.1411 16.9808 13.3923C17.3141 12.8961 17.5673 12.3615 17.7405 11.7885C17.9135 11.2153 18 10.6275 18 10.025C18.0063 8.35833 17.4204 6.9375 16.2423 5.7625C15.0641 4.5875 13.6417 4 11.975 4C11.0417 4 10.1587 4.21025 9.326 4.63075C8.49333 5.05125 7.80517 5.63592 7.2615 6.38475H8.8845V7.8845H4.5V3.5H6V5.6C6.68583 4.6205 7.55442 3.859 8.60575 3.3155C9.65708 2.77183 10.7802 2.5 11.975 2.5C14.0673 2.5 15.8446 3.23108 17.3068 4.69325C18.7689 6.15542 19.5 7.93267 19.5 10.025C19.5 10.7865 19.3898 11.523 19.1693 12.2345C18.9488 12.9462 18.6347 13.6109 18.227 14.2288C17.659 15.0904 17.0073 15.8702 16.272 16.5682C15.5368 17.2662 14.8417 18.0057 14.1865 18.7865C13.939 19.0903 13.7092 19.3958 13.497 19.7027C13.2848 20.0099 13.0968 20.3353 12.9327 20.6788L12.7673 21.0288C12.6904 21.1826 12.5802 21.2996 12.4365 21.3798C12.293 21.4599 12.1443 21.5 11.9905 21.5C11.8135 21.5 11.6564 21.459 11.5192 21.377C11.3821 21.2948 11.275 21.1788 11.198 21.0288L11.0328 20.6788C10.8686 20.3353 10.6846 20.0074 10.4808 19.6952C10.2769 19.3831 10.0512 19.0802 9.80375 18.7865C9.15508 17.9852 8.45158 17.2448 7.69325 16.5652C6.93492 15.8859 6.28333 15.1071 5.7385 14.2288C5.30383 13.6276 4.98875 12.967 4.79325 12.247C4.59775 11.5272 4.5 10.7865 4.5 10.025Z" fill="white"/>
</svg>
