<svg width="24" height="24" viewBox="0 0 24 24" fill="none" xmlns="http://www.w3.org/2000/svg">
<path d="M18.4578 9.30375L19.1115 8.65L17.25 6.823V4.05775H16.3652V7.18075L18.4578 9.30375ZM6 13H4H13.9865H6ZM4.51925 21.5C4.30675 21.5 4.12867 21.4281 3.985 21.2843C3.84117 21.1406 3.76925 20.9625 3.76925 20.75V18.777C3.40392 18.5232 3.101 18.1645 2.8605 17.701C2.62017 17.2375 2.5 16.7731 2.5 16.3077V7C2.5 5.72183 3.15225 4.819 4.45675 4.2915C5.76125 3.76383 7.98592 3.5 11.1308 3.5C10.9783 3.7295 10.8437 3.96767 10.727 4.2145C10.6103 4.46133 10.5097 4.718 10.425 4.9845C8.5135 5.01783 7.07758 5.13708 6.11725 5.34225C5.15708 5.54742 4.54367 5.85642 4.277 6.26925H10.1615C10.1308 6.51925 10.1155 6.76925 10.1155 7.01925C10.1155 7.26925 10.1341 7.51925 10.1713 7.76925H4V11.5H12.0442C12.3147 11.8038 12.6106 12.0833 12.9318 12.3385C13.2529 12.5937 13.6045 12.8142 13.9865 13H4V16C4 16.55 4.19583 17.0208 4.5875 17.4125C4.97917 17.8042 5.45 18 6 18H14C14.55 18 15.0208 17.8042 15.4125 17.4125C15.8042 17.0208 16 16.55 16 16V13.6365C16.25 13.6737 16.5 13.6923 16.75 13.6923C17 13.6923 17.25 13.6769 17.5 13.6463V16.3077C17.5 16.7731 17.3798 17.2375 17.1395 17.701C16.899 18.1645 16.5961 18.5232 16.2308 18.777V20.75C16.2308 20.9625 16.1588 21.1406 16.015 21.2843C15.8713 21.4281 15.6932 21.5 15.4808 21.5H14.8652C14.6529 21.5 14.4748 21.4281 14.331 21.2843C14.1873 21.1406 14.1155 20.9625 14.1155 20.75V19.5H5.8845V20.75C5.8845 20.9625 5.81267 21.1406 5.669 21.2843C5.52517 21.4281 5.34708 21.5 5.13475 21.5H4.51925ZM16.8038 11.5C15.5576 11.5 14.4967 11.0622 13.6212 10.1865C12.7456 9.31083 12.3077 8.2475 12.3077 6.9965C12.3077 5.76033 12.7431 4.70192 13.6137 3.82125C14.4846 2.94042 15.5505 2.5 16.8115 2.5C18.0577 2.5 19.1186 2.93783 19.9943 3.8135C20.8699 4.68917 21.3078 5.75133 21.3078 7C21.3078 8.24867 20.8686 9.31083 19.9902 10.1865C19.1119 11.0622 18.0498 11.5 16.8038 11.5ZM7.42775 16.4255C7.68108 16.1708 7.80775 15.8616 7.80775 15.4978C7.80775 15.1339 7.68033 14.8254 7.4255 14.5723C7.17083 14.3189 6.86158 14.1923 6.49775 14.1923C6.13392 14.1923 5.82542 14.3197 5.57225 14.5745C5.31892 14.8292 5.19225 15.1384 5.19225 15.5022C5.19225 15.8661 5.31967 16.1746 5.5745 16.4277C5.82917 16.6811 6.13842 16.8077 6.50225 16.8077C6.86608 16.8077 7.17458 16.6803 7.42775 16.4255ZM14.4277 16.4255C14.6811 16.1708 14.8077 15.8616 14.8077 15.4978C14.8077 15.1339 14.6803 14.8254 14.4255 14.5723C14.1708 14.3189 13.8616 14.1923 13.4977 14.1923C13.1339 14.1923 12.8254 14.3197 12.5723 14.5745C12.3189 14.8292 12.1923 15.1384 12.1923 15.5022C12.1923 15.8661 12.3197 16.1746 12.5745 16.4277C12.8292 16.6811 13.1384 16.8077 13.5023 16.8077C13.8661 16.8077 14.1746 16.6803 14.4277 16.4255Z" fill="white"/>
</svg>
