<svg width="24" height="24" viewBox="0 0 24 24" fill="none" xmlns="http://www.w3.org/2000/svg">
<path d="M19.574 16.8813C19.9218 16.3925 20.1974 15.87 20.4137 15.3223C20.1041 16.0343 19.7352 16.6706 19.3027 17.2268C19.3959 17.113 19.4892 17.0034 19.574 16.8813Z" fill="white"/>
<path d="M17.5513 18.811C17.5513 18.811 17.5725 18.7942 17.581 18.79C17.5725 18.7984 17.5598 18.8026 17.5513 18.811Z" fill="white"/>
<path d="M9.04074 18.6425C10.58 19.7296 12.4713 20.1847 14.3668 19.9318C15.1131 19.8349 15.817 19.6495 16.4531 19.3841C16.8432 19.224 17.2036 19.0259 17.5471 18.8068C17.5556 18.7984 17.5683 18.7942 17.5768 18.7858C17.7634 18.6636 17.9415 18.5372 18.1153 18.3981C18.2722 18.2759 18.4206 18.1411 18.5691 18.0063C18.6115 17.9683 18.6539 17.9304 18.6963 17.8883C18.7811 17.804 18.8659 17.7155 18.9465 17.627C19.0652 17.4964 19.1839 17.37 19.2942 17.2268C19.2942 17.2268 19.2942 17.2268 19.2942 17.2226C19.7309 16.6706 20.0999 16.0301 20.4052 15.318C20.4179 15.2843 20.4349 15.2548 20.4518 15.2211C20.7317 14.5554 20.9013 13.8475 20.9564 13.0849L20.9776 13.0933H20.9861C21.0667 13.1102 21.3211 13.186 21.7876 13.3335H21.796C21.8639 13.3461 21.9105 13.3166 21.936 13.2998C21.9445 13.2956 21.9529 13.2829 21.9572 13.2745C21.9953 13.2281 22.0081 13.1691 21.9953 13.1102C21.9953 13.1017 21.9869 13.0849 21.9784 13.0722L21.6603 12.5329L20.7656 11.0076L20.5154 10.5778L20.3543 10.3082C20.3034 10.2155 20.2101 10.1565 20.1041 10.1481C20.0914 10.1481 20.0744 10.1438 20.0617 10.1481H20.049C20.015 10.1481 19.9854 10.1481 19.9514 10.1607C19.8709 10.186 19.803 10.2407 19.7564 10.3166L19.3408 11.0497L19.2348 11.2351L18.357 12.7815L18.1747 13.1017C18.1323 13.1776 18.1535 13.2703 18.2213 13.325C18.2595 13.3545 18.3104 13.363 18.3613 13.3545H18.3698C18.8192 13.2071 19.0864 13.1228 19.167 13.1017C19.167 13.1017 19.2051 13.0849 19.2772 13.0638C19.2984 13.0554 19.3281 13.047 19.3535 13.0385C19.273 13.8854 19.0058 14.7197 18.5775 15.4655C18.5606 15.495 18.5436 15.5287 18.5224 15.5582C18.463 15.6551 18.4037 15.752 18.3401 15.8447C18.251 15.9753 18.1577 16.1102 18.0602 16.2324C18.0305 16.2703 18.0051 16.304 17.9754 16.3419C17.9118 16.4136 17.8482 16.4894 17.7846 16.5568C17.2163 17.1636 16.5209 17.6397 15.6898 17.9852C15.5371 18.0484 15.376 18.1074 15.2149 18.1622C13.1158 18.8658 10.7072 18.2338 9.1298 16.6622L7.71348 17.4332C8.1036 17.8799 8.54037 18.2844 9.02802 18.6299L9.04074 18.6425Z" fill="white"/>
<path d="M11.2076 5.22105L14.0106 6.79269C14.0869 6.83483 14.1802 6.81376 14.2353 6.74635C14.265 6.70842 14.2735 6.65786 14.265 6.6073V6.59887C14.1166 6.15224 14.0318 5.88679 14.0106 5.80673C14.0106 5.80673 13.9936 5.76881 13.9724 5.69718C13.9639 5.66768 13.9512 5.62976 13.9385 5.58763C14.2989 5.62134 14.6466 5.68454 14.9986 5.79409C16.6524 6.29129 17.8609 7.26461 18.6284 8.66771L20.0999 8.0399C19.3069 6.48089 17.9839 5.30111 16.1435 4.53846C15.4735 4.26037 14.7611 4.09183 13.9936 4.03705L14.0021 4.01598V4.00756C14.019 3.9275 14.0954 3.67469 14.2438 3.2112V3.20278C14.2565 3.13536 14.2268 3.08901 14.2099 3.06373C14.2056 3.0553 14.1929 3.04688 14.1844 3.04266C14.1378 3.00474 14.0784 2.9921 14.019 3.00474C14.0106 3.00474 13.9936 3.01317 13.9809 3.02159L13.4381 3.33761L11.4748 4.47526L11.2034 4.63537C11.1101 4.68593 11.0507 4.77863 11.0422 4.88397C11.0422 4.89661 11.038 4.91346 11.0422 4.92611V4.93875C11.0422 4.97245 11.0422 5.00195 11.055 5.03566C11.0804 5.11571 11.1355 5.18313 11.2119 5.22948L11.2076 5.22105Z" fill="white"/>
<path d="M11.2247 9.57868L10.8097 9.55024C10.52 9.52891 10.266 9.34764 10.1551 9.07394L10.1479 9.05617C10.0299 8.77892 10.08 8.46968 10.2696 8.25286L10.5414 7.94007C10.6416 7.82633 10.6344 7.65571 10.5271 7.54908L9.62925 6.65691C9.52193 6.55027 9.35023 6.54317 9.23576 6.64269L8.92096 6.91283C8.69918 7.10477 8.39154 7.15098 8.11252 7.03368L8.09821 7.02657C7.82277 6.91283 7.63675 6.66402 7.61887 6.37611L7.59025 5.96379C7.57952 5.8145 7.45432 5.6972 7.3005 5.6972H6.03417C5.88393 5.6972 5.75515 5.8145 5.74442 5.96379L5.7158 6.37611C5.69434 6.66402 5.5119 6.91638 5.23646 7.02657L5.22215 7.03368C4.94313 7.15098 4.63192 7.10122 4.41371 6.91283L4.09892 6.64269C3.98445 6.54317 3.81274 6.55027 3.70543 6.65691L2.80755 7.54908C2.70024 7.65571 2.69308 7.82633 2.79324 7.94007L3.06511 8.25286C3.25828 8.47324 3.30478 8.77892 3.18673 9.05617L3.17958 9.07039C3.06511 9.34408 2.81471 9.52891 2.52138 9.55024L2.10642 9.57868C1.95618 9.58934 1.83813 9.71375 1.83813 9.86659V11.1284C1.83813 11.2777 1.95618 11.4057 2.10642 11.4163L2.52138 11.4448C2.81113 11.4661 3.06511 11.6474 3.17958 11.9211L3.18673 11.9353C3.30478 12.2125 3.2547 12.5218 3.06511 12.7386L2.79324 13.0514C2.69308 13.1651 2.70024 13.3357 2.80755 13.4424L3.70543 14.3345C3.81274 14.4412 3.98445 14.4483 4.09892 14.3488L4.41371 14.0786C4.63549 13.8867 4.94313 13.8405 5.22215 13.9578L5.23646 13.9649C5.5119 14.0786 5.69792 14.3274 5.71938 14.6189L5.748 15.0312C5.75873 15.1805 5.88393 15.2978 6.03775 15.2978H7.30408C7.45432 15.2978 7.5831 15.1805 7.59383 15.0312L7.62245 14.6189C7.64391 14.331 7.82634 14.0786 8.10179 13.9684L8.11967 13.9613C8.39869 13.844 8.70991 13.8938 8.92812 14.0822L9.24291 14.3523C9.35738 14.4518 9.52909 14.4447 9.6364 14.3381L10.5343 13.4459C10.6416 13.3393 10.6487 13.1687 10.5486 13.0549L10.2767 12.7421C10.0835 12.5218 10.037 12.2161 10.1551 11.9388L10.1622 11.9246C10.2767 11.6509 10.5271 11.4661 10.8169 11.4483L11.2318 11.4199C11.3821 11.4092 11.5001 11.2848 11.5001 11.132V9.87014C11.5001 9.72086 11.3821 9.59289 11.2318 9.58223L11.2247 9.57868ZM6.66734 12.6071C5.49402 12.6071 4.54249 11.6616 4.54249 10.4957C4.54249 9.32986 5.49402 8.38438 6.66734 8.38438C7.84065 8.38438 8.79219 9.32986 8.79219 10.4957C8.79219 11.6616 7.84065 12.6071 6.66734 12.6071Z" fill="white"/>
</svg>
