<svg width="24" height="24" viewBox="0 0 24 24" fill="none" xmlns="http://www.w3.org/2000/svg">
<path d="M15.3815 13.9582V14.9183H8.97968V13.9582H15.3815ZM10.7976 6.97905C11.4121 5.91424 12.949 5.91424 13.5635 6.97905L16.7644 12.5238C17.3788 13.587 16.6103 14.9183 15.3815 14.9183V13.9582C15.8411 13.9582 16.1387 13.491 15.9731 13.0844L15.9337 13.0038L12.7328 7.45908C12.4878 7.03443 11.8742 7.03443 11.6293 7.45908L8.42838 13.0029C8.18335 13.4276 8.48939 13.9582 8.97968 13.9582V14.9183L8.86623 14.9145C7.70427 14.8358 7.00146 13.5557 7.59675 12.5238L10.7976 6.97905Z" fill="white"/>
<path d="M12.1806 8.14994C11.9433 8.14994 11.7501 8.3431 11.7501 8.5804V11.5954C11.7501 11.8327 11.9433 12.0259 12.1806 12.0259C12.4179 12.0259 12.611 11.8327 12.611 11.5954V8.5804C12.611 8.3431 12.4179 8.14994 12.1806 8.14994Z" fill="white"/>
<path d="M12.1806 12.5382C11.9433 12.5382 11.7501 12.7314 11.7501 12.9687C11.7501 13.206 11.9433 13.3991 12.1806 13.3991C12.4179 13.3991 12.611 13.206 12.611 12.9687C12.611 12.7314 12.4179 12.5382 12.1806 12.5382Z" fill="white"/>
<path d="M18.0985 16.1704V17.3704H6.2626V16.1704H18.0985ZM19.3806 14.8884V6.26243C19.3806 5.55596 18.8065 4.98042 18.0985 4.98042H6.33525C6.31119 4.98187 6.28703 4.98393 6.2626 4.98394C5.55611 4.98394 4.98057 5.55805 4.98057 6.26595V14.8884C4.98057 15.5949 5.55468 16.1704 6.2626 16.1704V17.3704L6.0083 17.3575C4.75598 17.2302 3.78057 16.1709 3.78057 14.8884V6.26595C3.78057 4.97966 4.75965 3.92355 6.00947 3.79685L6.2626 3.78396V3.78044H18.0985C19.4704 3.78044 20.5806 4.89444 20.5806 6.26243V14.8884C20.5806 16.1747 19.6015 17.2308 18.3517 17.3575L18.0985 17.3704V16.1704C18.805 16.1704 19.3806 15.5963 19.3806 14.8884Z" fill="white"/>
<path d="M11.5806 20.0391V17.3743C11.5806 17.0429 11.8492 16.7743 12.1806 16.7743C12.5119 16.7743 12.7806 17.0429 12.7806 17.3743V20.0391C12.7806 20.3705 12.5119 20.6391 12.1806 20.6391C11.8492 20.6391 11.5806 20.3705 11.5806 20.0391Z" fill="white"/>
<path d="M18.1806 19.9804C18.5119 19.9804 18.7806 20.2491 18.7806 20.5804C18.7806 20.9118 18.5119 21.1804 18.1806 21.1804H6.18057C5.8492 21.1804 5.58057 20.9118 5.58057 20.5804C5.58057 20.2491 5.8492 19.9804 6.18057 19.9804H18.1806Z" fill="white"/>
<path d="M18.6001 20.5804C18.6001 20.3485 18.4125 20.1609 18.1806 20.1609H12.9481C12.8895 20.5336 12.5698 20.8195 12.1806 20.8195C11.7914 20.8195 11.4717 20.5336 11.413 20.1609H6.18057C5.94861 20.1609 5.76104 20.3485 5.76104 20.5804C5.76104 20.8124 5.94861 21 6.18057 21H18.1806C18.4125 21 18.6001 20.8124 18.6001 20.5804ZM11.781 20.1609C11.8334 20.3331 11.9912 20.4586 12.1806 20.4586C12.3699 20.4586 12.5278 20.3331 12.5802 20.1609H11.781ZM11.761 19.8H12.6001V17.55H11.761V19.8ZM6.44307 17.1902H11.4247C11.5076 16.8485 11.8134 16.5937 12.1806 16.5937C12.5478 16.5937 12.8535 16.8485 12.9364 17.1902H17.9181V16.35H6.44307V17.1902ZM12.1806 16.9547C12.015 16.9547 11.874 17.0511 11.8056 17.1902H12.5556C12.4871 17.0511 12.3461 16.9547 12.1806 16.9547ZM19.2001 6.26248C19.2001 5.65529 18.7069 5.16091 18.0985 5.16091H6.33525C6.31627 5.16218 6.2887 5.16442 6.2626 5.16443C5.65539 5.16443 5.16104 5.65763 5.16104 6.26599V14.8886C5.16115 15.4957 5.65429 15.9902 6.2626 15.9902H18.0985C18.7057 15.9902 19.2 15.4969 19.2001 14.8886V6.26248ZM19.561 14.8886C19.5609 15.6347 18.9998 16.2479 18.279 16.3371V17.1797L18.3423 17.1773C19.497 17.0558 20.4 16.0783 20.4001 14.8886V6.26248C20.4001 4.99372 19.3708 3.96091 18.0985 3.96091H6.28135C6.27818 3.96125 6.27519 3.96309 6.27197 3.96326L6.02588 3.97498L6.02705 3.97615C4.86831 4.09392 3.96104 5.07339 3.96104 6.26599V14.8886C3.96114 16.0753 4.86141 17.0557 6.01885 17.1773L6.08213 17.1797V16.3371C5.36003 16.2478 4.80021 15.6332 4.8001 14.8886V6.26599C4.8001 5.45855 5.45683 4.80349 6.2626 4.80349L6.32471 4.80115L6.33525 4.79998H18.0985C18.906 4.79998 19.561 5.45672 19.561 6.26248V14.8886ZM20.761 14.8886C20.7609 16.2683 19.7098 17.4012 18.3692 17.5371H18.361L18.1079 17.55L18.0985 17.5511L12.961 17.55V19.8H18.1806C18.6113 19.8 18.961 20.1497 18.961 20.5804C18.961 21.0112 18.6113 21.3609 18.1806 21.3609H6.18057C5.74978 21.3609 5.4001 21.0112 5.4001 20.5804C5.4001 20.1497 5.74978 19.8 6.18057 19.8H11.4001V17.55H6.25322L5.99893 17.5371H5.98955C4.64642 17.4002 3.60021 16.264 3.6001 14.8886V6.26599C3.6001 4.88621 4.65127 3.75346 5.99189 3.61755L6.0001 3.61638L6.2333 3.60583C6.24299 3.60422 6.25245 3.59998 6.2626 3.59998H18.0985C19.57 3.59998 20.761 4.79525 20.761 6.26248V14.8886Z" fill="white"/>
</svg>
