<svg width="36" height="36" viewBox="0 0 36 36" fill="none" xmlns="http://www.w3.org/2000/svg">
<path d="M16.7126 12.1157C16.0035 12.2709 15.3438 12.5496 14.7511 12.9271L13.3189 11.8405L11.8407 13.3187L12.9273 14.7509C12.5463 15.3436 12.2676 16.0033 12.1159 16.7124L10.3344 16.9558V19.0442L12.1159 19.2876C12.2711 19.9967 12.5498 20.6564 12.9273 21.2491L11.8407 22.6813L13.3189 24.1594L14.7511 23.0729C15.3438 23.4539 16.0035 23.7326 16.7126 23.8843L16.956 25.6658H19.0444L19.2878 23.8843C19.9969 23.7291 20.6566 23.4504 21.2493 23.0729L22.6815 24.1594L24.1596 22.6813L23.0731 21.2491C23.4541 20.6564 23.7328 19.9967 23.8845 19.2876L25.666 19.0442V16.9558L23.8845 16.7124C23.7293 16.0033 23.4506 15.3436 23.0731 14.7509L24.1596 13.3187L22.6815 11.8405L21.2493 12.9271C20.6566 12.5461 19.9969 12.2674 19.2878 12.1157L19.0444 10.3342H16.956L16.7126 12.1157ZM20.2862 18C20.2862 19.2629 19.2631 20.286 18.0002 20.286C16.7373 20.286 15.7142 19.2629 15.7142 18C15.7142 16.7371 16.7373 15.714 18.0002 15.714C19.2631 15.714 20.2862 16.7371 20.2862 18Z" fill="white"/>
<path d="M28.7032 7.49436H30.146C30.6223 7.49436 31.0103 7.1063 31.0103 6.63006C31.0103 6.15381 30.6223 5.76576 30.146 5.76576H26.6889C26.2126 5.76576 25.8246 6.15381 25.8246 6.63006V10.0873C25.8246 10.5635 26.2126 10.9516 26.6889 10.9516C27.1651 10.9516 27.5532 10.5635 27.5532 10.0873V8.79257C29.952 11.2796 31.2714 14.5357 31.2714 18C31.2714 25.3166 25.3166 31.2714 18 31.2714C14.4546 31.2714 11.1209 29.8921 8.61618 27.3838C6.10795 24.8756 4.7286 21.5454 4.7286 18C4.7286 10.6834 10.6834 4.7286 18 4.7286C18.4762 4.7286 18.8643 4.34055 18.8643 3.8643C18.8643 3.38805 18.4762 3 18 3C9.72742 3 3 9.72742 3 18C3 22.0075 4.55927 25.7716 7.39205 28.6079C10.2248 31.4407 13.9925 33 18 33C26.2726 33 33 26.2726 33 18C33 14.0419 31.4725 10.3166 28.7032 7.49436Z" fill="white"/>
</svg>
