<svg width="24" height="24" viewBox="0 0 24 24" fill="none" xmlns="http://www.w3.org/2000/svg">
<path d="M4.04517 4C2.91581 4 2 4.92483 2 6.06532V15.8362C2 16.9767 2.91581 17.9015 4.04517 17.9015H11.9713L11.807 17.5946C11.6509 17.3043 11.5195 16.9933 11.4127 16.6739L11.3676 16.5329H4.04517C3.66735 16.5329 3.35524 16.2219 3.35524 15.8362V6.06532C3.35524 5.68377 3.66324 5.36858 4.04517 5.36858H18.6817C19.0595 5.36858 19.3717 5.67963 19.3717 6.06532V9.54069L19.4867 9.59876C19.807 9.7605 20.115 9.95542 20.4025 10.1752L20.731 10.4282V6.06532C20.731 4.92483 19.8152 4 18.6858 4H4.04517Z" fill="white"/>
<path d="M18.7598 6.69155C18.7598 6.3183 18.46 6.0197 18.0945 6.0197H16.2875L18.7598 7.98548V6.69155Z" fill="white"/>
<path d="M17.2895 10.4863C14.6858 10.4863 12.5791 12.6179 12.5791 15.2431C12.5791 17.8683 14.6899 20 17.2895 20C19.8891 20 22 17.8683 22 15.2431C22 12.6179 19.8891 10.4863 17.2895 10.4863ZM19.6715 16.8025L18.8337 17.6485L17.2895 16.0892L15.7454 17.6485L14.9076 16.8025L16.4517 15.2431L14.9076 13.6838L15.7454 12.8377L17.2895 14.3971L18.8337 12.8377L19.6715 13.6838L18.1273 15.2431L19.6715 16.8025Z" fill="white"/>
<path d="M6.45175 10.7641H4.87885V15.5873H6.45175V10.7641Z" fill="white"/>
<path d="M9.65503 6.85329H4.87885V8.44168H9.65503V6.85329Z" fill="white"/>
<path d="M9.31417 12.8377H7.74127V15.5915H9.31417V12.8377Z" fill="white"/>
</svg>
