<svg width="9" height="11" viewBox="0 0 9 11" fill="none" xmlns="http://www.w3.org/2000/svg">
<path d="M6.5 7.5C6.77614 7.5 7 7.72386 7 8C7 8.27614 6.77614 8.5 6.5 8.5H2.5C2.22386 8.5 2 8.27614 2 8C2 7.72386 2.22386 7.5 2.5 7.5H6.5ZM6.5 5.5C6.77614 5.5 7 5.72386 7 6C7 6.27614 6.77614 6.5 6.5 6.5H2.5C2.22386 6.5 2 6.27614 2 6C2 5.72386 2.22386 5.5 2.5 5.5H6.5ZM3.5 3.5C3.77614 3.5 4 3.72386 4 4C4 4.27614 3.77614 4.5 3.5 4.5H2.5C2.22386 4.5 2 4.27614 2 4C2 3.72386 2.22386 3.5 2.5 3.5H3.5ZM6 3H7.29297L6 1.70703V3ZM9 9.5C9 9.89783 8.84185 10.2792 8.56055 10.5605C8.27924 10.8419 7.89783 11 7.5 11H1.5C1.10217 11 0.720758 10.8419 0.439453 10.5605C0.158149 10.2792 0 9.89783 0 9.5V1.5C0 1.10218 0.158148 0.720758 0.439453 0.439453C0.720758 0.158148 1.10218 0 1.5 0H5.5C5.63261 0 5.75975 0.0527162 5.85352 0.146484L8.85352 3.14648C8.94728 3.24025 9 3.36739 9 3.5V9.5ZM1 9.5C1 9.63261 1.05272 9.75975 1.14648 9.85352C1.24025 9.94728 1.36739 10 1.5 10H7.5C7.63261 10 7.75975 9.94728 7.85352 9.85352C7.94728 9.75975 8 9.63261 8 9.5V4H5.5C5.22386 4 5 3.77614 5 3.5V1H1.5C1.36739 1 1.24025 1.05272 1.14648 1.14648C1.05272 1.24025 1 1.36739 1 1.5V9.5Z" fill="white"/>
</svg>
