<svg width="36" height="36" viewBox="0 0 36 36" fill="none" xmlns="http://www.w3.org/2000/svg">
<path d="M29.7757 3H13.3694C11.5922 3 10.148 4.44414 10.148 6.22131V17.7169C8.00757 18.6827 6.51499 20.8353 6.51499 23.33C6.51499 24.0536 6.64214 24.7499 6.87223 25.3948L3.77203 28.495C2.74266 29.5213 2.74266 31.1956 3.77203 32.2249C4.79837 33.2543 6.4726 33.2543 7.50197 32.2249L10.6022 29.1247C11.247 29.3548 11.9434 29.482 12.667 29.482C15.5976 29.482 18.053 27.4233 18.6706 24.6773H27.4323C27.9167 24.6773 28.3103 24.2837 28.3103 23.7993V11.789H32.119C32.6034 11.789 32.997 11.3954 32.997 10.911V6.22434C32.997 4.44717 31.5528 3.00303 29.7757 3.00303V3ZM6.25764 30.9837C5.91553 31.3258 5.35846 31.3258 5.01332 30.9837C4.67121 30.6415 4.67121 30.0845 5.01332 29.7393L7.74114 27.0115C8.09537 27.4838 8.51317 27.9016 8.98547 28.2558L6.25764 30.9837ZM12.667 27.726C10.2449 27.726 8.27399 25.7551 8.27399 23.333C8.27399 20.911 10.2449 18.9401 12.667 18.9401C15.089 18.9401 17.0599 20.911 17.0599 23.333C17.0599 25.7551 15.089 27.726 12.667 27.726ZM26.5543 6.22131V22.9213H18.8068C18.5949 19.7181 15.9216 17.178 12.667 17.178C12.4096 17.178 12.1553 17.1932 11.904 17.2265V6.22131C11.904 5.41296 12.561 4.75598 13.3694 4.75598H26.9055C26.6815 5.19497 26.5543 5.69452 26.5543 6.22131ZM31.241 10.03H28.3103V6.22131C28.3103 5.41296 28.9673 4.75598 29.7757 4.75598C30.584 4.75598 31.241 5.41296 31.241 6.22131V10.03Z" fill="white"/>
<path d="M14.5439 10.9111H23.9172C24.4016 10.9111 24.7952 10.5175 24.7952 10.0331C24.7952 9.54867 24.4016 9.15509 23.9172 9.15509H14.5439C14.0595 9.15509 13.6659 9.54867 13.6659 10.0331C13.6659 10.5175 14.0595 10.9111 14.5439 10.9111Z" fill="white"/>
<path d="M14.5439 14.4261H23.9172C24.4016 14.4261 24.7952 14.0325 24.7952 13.5481C24.7952 13.0637 24.4016 12.6701 23.9172 12.6701H14.5439C14.0595 12.6701 13.6659 13.0637 13.6659 13.5481C13.6659 14.0325 14.0595 14.4261 14.5439 14.4261Z" fill="white"/>
<path d="M23.9172 16.1821H19.8149C19.3305 16.1821 18.9369 16.5756 18.9369 17.0601C18.9369 17.5445 19.3305 17.938 19.8149 17.938H23.9172C24.4016 17.938 24.7952 17.5445 24.7952 17.0601C24.7952 16.5756 24.4016 16.1821 23.9172 16.1821Z" fill="white"/>
</svg>
