<svg preserveAspectRatio="none" width="100%" height="100%" overflow="visible" style="display: block;" viewBox="0 0 20 20" fill="none" xmlns="http://www.w3.org/2000/svg">
<g id="icon">
<g id="container" opacity="0.1">
</g>
<path id="Vector" d="M17.6631 12.668C18.0313 12.668 18.3301 12.9668 18.3301 13.335V16.001C18.3301 16.3692 18.0313 16.668 17.6631 16.668H2.33105C2.15424 16.668 1.9844 16.5977 1.85938 16.4727C1.73435 16.3476 1.66402 16.1778 1.66406 16.001L1.66504 13.335C1.66513 12.9669 1.96309 12.6681 2.33105 12.668C2.69924 12.6681 2.99814 12.9668 2.99805 13.335L2.99707 15.335H16.9971V13.335C16.9971 12.9669 17.295 12.6681 17.6631 12.668ZM9.99707 2.49902C10.3652 2.49902 10.6639 2.797 10.6641 3.16504V11.2598L13.6836 8.12012C13.9388 7.85473 14.3606 7.84641 14.626 8.10156C14.8914 8.35675 14.8997 8.77854 14.6445 9.04395L10.4775 13.377C10.3518 13.5077 10.1784 13.582 9.99707 13.582C9.81584 13.5819 9.64222 13.5076 9.5166 13.377L5.35059 9.04395C5.09539 8.77854 5.10374 8.35676 5.36914 8.10156C5.63456 7.84657 6.05639 7.85478 6.31152 8.12012L9.33105 11.2598V3.16504C9.33123 2.79711 9.62914 2.4992 9.99707 2.49902Z" fill="var(--fill-0, #33363D)"/>
</g>
</svg>
