<svg width="17" height="15" viewBox="0 0 17 15" fill="none" xmlns="http://www.w3.org/2000/svg">
<path d="M15.999 10.1689C16.3672 10.1689 16.666 10.4677 16.666 10.8359V13.502C16.666 13.8701 16.3672 14.1689 15.999 14.1689H0.666992C0.49018 14.1689 0.320336 14.0987 0.195312 13.9736C0.0702836 13.8486 -4.31637e-05 13.6788 0 13.502L0.000976562 10.8359C0.00106638 10.4679 0.299027 10.1691 0.666992 10.1689C1.03518 10.169 1.33407 10.4677 1.33398 10.8359L1.33301 12.8359H15.333V10.8359C15.333 10.4679 15.631 10.1691 15.999 10.1689ZM8.33301 0C8.70109 0 8.99982 0.297976 9 0.666016V8.76074L12.0195 5.62109C12.2747 5.3557 12.6965 5.34738 12.9619 5.60254C13.2273 5.85772 13.2356 6.27952 12.9805 6.54492L8.81348 10.8779C8.68779 11.0086 8.51435 11.083 8.33301 11.083C8.15178 11.0829 7.97816 11.0086 7.85254 10.8779L3.68652 6.54492C3.43133 6.27952 3.43967 5.85773 3.70508 5.60254C3.97049 5.34755 4.39233 5.35576 4.64746 5.62109L7.66699 8.76074V0.666016C7.66717 0.298084 7.96508 0.000176161 8.33301 0Z" fill="#33363D"/>
</svg>
