<svg width="36" height="36" viewBox="0 0 36 36" fill="none" xmlns="http://www.w3.org/2000/svg">
<path d="M14.7013 9.1311H10.0322V10.7957H14.7013V9.1311Z" fill="#8999AF"/>
<path d="M17.0397 13.9195H10.0319V15.5841H17.0397V13.9195Z" fill="#8999AF"/>
<path d="M24.1948 18.7077H10.0321V20.3723H24.1948V18.7077Z" fill="#8999AF"/>
<path d="M19.4977 23.4964H10.0318V25.161H19.4977V23.4964Z" fill="#8999AF"/>
<path d="M18.1888 9.29463C18.1888 11.8303 20.2445 13.8888 22.783 13.8888H28.2455L18.1888 3.83207V9.29463Z" fill="#8999AF"/>
<path d="M23.6487 30.2324H13.5337V28.5678H23.6487C25.7211 28.5678 27.4106 26.881 27.4106 24.8059V14.2303L17.8421 4.66457H10.4265C8.3541 4.66457 6.66457 6.35133 6.66457 8.4265V24.8086C6.66457 26.881 8.35133 28.5706 10.4265 28.5706V30.2351C7.43582 30.2351 5 27.8021 5 24.8086V8.4265C5 5.43582 7.43304 3 10.4265 3H18.1862C18.4081 3 18.6189 3.08878 18.7743 3.24414L28.8283 13.2981C28.9837 13.4535 29.0724 13.6671 29.0724 13.8863V24.8059C29.0724 27.7965 26.6394 30.2324 23.6459 30.2324H23.6487Z" fill="#8999AF"/>
<path d="M30.2822 31.6917C29.325 32.6488 27.7714 32.6488 26.8115 31.6917L21.1853 26.0655L19.6372 22.0233C19.4042 21.413 20.0034 20.8137 20.6138 21.0468L24.6559 22.5948L30.2822 28.2211C31.2393 29.1782 31.2393 30.7318 30.2822 31.6917Z" fill="#8999AF"/>
</svg>
