<svg width="54" height="64" viewBox="0 0 54 64" fill="none" xmlns="http://www.w3.org/2000/svg">
<path d="M6.66667 63.3333C5.72222 63.3333 4.93056 63.0139 4.29167 62.375C3.65278 61.7361 3.33333 60.9444 3.33333 60V53.1667C2.33333 52.0556 1.52778 50.8194 0.916667 49.4583C0.305556 48.0972 0 46.6111 0 45V13.3333C0 8.72222 2.13889 5.34722 6.41667 3.20833C10.6944 1.06944 17.4444 0 26.6667 0C36.2222 0 43.0556 1.02778 47.1667 3.08333C51.2778 5.13889 53.3333 8.55556 53.3333 13.3333V45C53.3333 46.6111 53.0278 48.0972 52.4167 49.4583C51.8056 50.8194 51 52.0556 50 53.1667V60C50 60.9444 49.6806 61.7361 49.0417 62.375C48.4028 63.0139 47.6111 63.3333 46.6667 63.3333H43.3333C42.3889 63.3333 41.5972 63.0139 40.9583 62.375C40.3194 61.7361 40 60.9444 40 60V56.6667H13.3333V60C13.3333 60.9444 13.0139 61.7361 12.375 62.375C11.7361 63.0139 10.9444 63.3333 10 63.3333H6.66667ZM6.66667 26.6667H46.6667V16.6667H6.66667V26.6667ZM18.5417 45.2083C19.5139 44.2361 20 43.0556 20 41.6667C20 40.2778 19.5139 39.0972 18.5417 38.125C17.5694 37.1528 16.3889 36.6667 15 36.6667C13.6111 36.6667 12.4306 37.1528 11.4583 38.125C10.4861 39.0972 10 40.2778 10 41.6667C10 43.0556 10.4861 44.2361 11.4583 45.2083C12.4306 46.1806 13.6111 46.6667 15 46.6667C16.3889 46.6667 17.5694 46.1806 18.5417 45.2083ZM41.875 45.2083C42.8472 44.2361 43.3333 43.0556 43.3333 41.6667C43.3333 40.2778 42.8472 39.0972 41.875 38.125C40.9028 37.1528 39.7222 36.6667 38.3333 36.6667C36.9444 36.6667 35.7639 37.1528 34.7917 38.125C33.8194 39.0972 33.3333 40.2778 33.3333 41.6667C33.3333 43.0556 33.8194 44.2361 34.7917 45.2083C35.7639 46.1806 36.9444 46.6667 38.3333 46.6667C39.7222 46.6667 40.9028 46.1806 41.875 45.2083Z" fill="white"/>
</svg>
