<svg preserveAspectRatio="none" width="100%" height="100%" overflow="visible" style="display: block;" viewBox="0 0 80 80" fill="none" xmlns="http://www.w3.org/2000/svg">
<g id="busGlyph">
<path id="Vector" d="M20 70C19.0556 70 18.2639 69.6806 17.625 69.0417C16.9861 68.4028 16.6667 67.6111 16.6667 66.6667V59.8333C15.6667 58.7222 14.8611 57.4861 14.25 56.125C13.6389 54.7639 13.3333 53.2778 13.3333 51.6667V20C13.3333 15.3889 15.4722 12.0139 19.75 9.875C24.0278 7.73611 30.7778 6.66667 40 6.66667C49.5556 6.66667 56.3889 7.69444 60.5 9.75C64.6111 11.8056 66.6667 15.2222 66.6667 20V51.6667C66.6667 53.2778 66.3611 54.7639 65.75 56.125C65.1389 57.4861 64.3333 58.7222 63.3333 59.8333V66.6667C63.3333 67.6111 63.0139 68.4028 62.375 69.0417C61.7361 69.6806 60.9444 70 60 70H56.6667C55.7222 70 54.9306 69.6806 54.2917 69.0417C53.6528 68.4028 53.3333 67.6111 53.3333 66.6667V63.3333H26.6667V66.6667C26.6667 67.6111 26.3472 68.4028 25.7083 69.0417C25.0694 69.6806 24.2778 70 23.3333 70H20ZM20 33.3333H60V23.3333H20V33.3333ZM31.875 51.875C32.8472 50.9028 33.3333 49.7222 33.3333 48.3333C33.3333 46.9444 32.8472 45.7639 31.875 44.7917C30.9028 43.8194 29.7222 43.3333 28.3333 43.3333C26.9444 43.3333 25.7639 43.8194 24.7917 44.7917C23.8194 45.7639 23.3333 46.9444 23.3333 48.3333C23.3333 49.7222 23.8194 50.9028 24.7917 51.875C25.7639 52.8472 26.9444 53.3333 28.3333 53.3333C29.7222 53.3333 30.9028 52.8472 31.875 51.875ZM55.2083 51.875C56.1806 50.9028 56.6667 49.7222 56.6667 48.3333C56.6667 46.9444 56.1806 45.7639 55.2083 44.7917C54.2361 43.8194 53.0556 43.3333 51.6667 43.3333C50.2778 43.3333 49.0972 43.8194 48.125 44.7917C47.1528 45.7639 46.6667 46.9444 46.6667 48.3333C46.6667 49.7222 47.1528 50.9028 48.125 51.875C49.0972 52.8472 50.2778 53.3333 51.6667 53.3333C53.0556 53.3333 54.2361 52.8472 55.2083 51.875Z" fill="var(--fill-0, white)"/>
</g>
</svg>
