<svg width="236" height="60" viewBox="0 0 236 60" fill="none" xmlns="http://www.w3.org/2000/svg">
<g clip-path="url(#clip0_536_2493)">
<path d="M33.423 8.00677C33.5379 8.18527 33.6911 8.33826 33.7039 8.51676C33.8699 9.0395 34.355 9.35824 34.4188 9.88098C34.4444 10.0595 34.6742 10.136 34.7891 10.2125C34.9168 10.3782 34.8274 10.5695 35.0827 10.8117C35.1976 10.8882 35.1083 11.0794 35.1338 11.2579C35.2487 11.3344 35.3764 11.4109 35.4913 11.4874C36.5765 13.1831 36.6786 15.1466 35.4275 16.9698C35.2232 17.1738 35.0317 17.4543 34.9551 17.7348C34.8529 17.8368 34.6359 17.9388 34.5338 18.0408C34.5593 18.2193 34.6742 18.2958 34.8019 18.4615C34.2529 18.6018 34.189 19.0607 33.7805 19.3667C33.6656 19.3667 33.4485 19.3922 33.3336 19.405C33.0272 19.711 32.7081 19.8257 32.3889 20.0297C32.2867 20.1317 32.3123 20.3995 32.325 20.4887C31.8016 20.8967 31.0483 21.1517 30.2568 21.1262C30.1546 21.1262 30.0653 21.4194 29.9631 21.4194C29.4014 21.4704 28.7375 21.4449 28.1757 21.4959C27.9459 21.4322 27.8183 21.2664 27.5757 21.1899C27.3586 21.2154 27.1288 21.2282 26.899 21.1644C26.5415 20.9222 26.0819 20.884 25.7244 20.731C25.4946 20.6672 25.0733 20.884 24.8308 20.731C24.0775 20.0807 23.337 19.4305 22.9284 18.7548C22.6603 18.334 22.188 18.1938 22.0348 17.7603C22.0092 17.5818 22.0986 17.3013 21.8688 17.2375C21.4092 17.0973 21.6007 16.8168 21.5751 16.5491C21.4347 16.2941 21.4092 16.1156 21.1666 15.8733C21.0262 15.6183 21.2049 15.2358 21.0645 14.8916C21.0645 14.8024 21.1538 14.7004 21.1411 14.6111C20.9751 14.0884 21.2432 13.5274 21.1921 13.0811C21.1666 12.8134 21.2304 12.4437 21.3198 12.1759C21.6007 11.6149 21.856 10.9519 22.3539 10.3655C22.3539 10.2762 22.3284 10.0977 22.3156 10.0085C22.4178 9.90647 22.5327 9.89372 22.622 9.79173C22.8008 9.33274 22.9795 8.95025 23.2732 8.56776C23.6689 8.08327 24.2945 7.66253 24.8052 7.16529C25.1116 6.87205 25.5329 6.64256 25.8138 6.17082C25.916 6.06882 26.2734 6.22182 26.3756 6.11982C26.682 5.82658 27.1288 5.86483 27.448 5.66083C27.7672 5.45684 27.7034 5.90307 28.0225 5.78833C28.2396 5.76283 28.3417 5.67358 28.5587 5.55883C28.8779 5.44409 29.2482 5.67358 29.5929 5.72458C29.9248 5.69908 30.2695 5.75008 30.627 5.99232C31.1122 6.31106 32.2229 6.19632 32.4016 6.82105C32.6698 7.24179 33.1549 7.56053 33.423 7.98127V8.00677Z" fill="#C2002F"/>
<path d="M52.217 15.0446C52.217 14.7641 52.217 14.5984 52.1021 14.3051C52.0765 14.0246 52.2936 13.7187 52.1915 13.3362C52.1276 13.2342 51.9872 13.1194 51.9999 13.0302C52.1914 12.4437 52.2042 11.9082 52.1531 11.2835C52.1021 11.0922 52.0382 10.9902 51.9744 10.8882C51.9872 10.799 52.0255 10.6332 52.051 10.4547C52.0638 9.91925 51.8978 9.52401 51.7318 9.03952C51.6808 8.84828 51.5403 8.73353 51.5148 8.45304C51.451 8.35104 51.3105 8.22355 51.3233 8.1343C51.4637 7.35657 51.0935 6.74458 50.9786 6.0051C50.7998 5.16362 50.0083 4.62813 49.7529 3.77391C49.7657 3.68466 50.0338 3.72291 50.1104 3.73566C50.736 4.32214 51.4382 5.01062 51.6042 5.8521C51.7191 6.14535 51.668 6.40034 51.7957 6.60433C52.3319 7.25457 52.4213 8.0833 52.5234 8.91203C52.5106 9.00128 52.6766 8.95028 52.7404 9.05227C52.7277 9.14152 52.6894 9.30727 52.7532 9.40927C53.1617 9.8555 52.9064 10.34 52.9958 10.799C53.0468 10.9902 53.0979 11.0922 53.1617 11.1942C53.149 11.2835 52.9447 11.513 52.9192 11.5895C53.2511 12.023 53.3916 12.5839 53.3022 13.1067C53.6852 13.2852 53.5065 13.7824 53.5958 14.1521C53.6597 14.2541 53.7363 14.2669 53.8129 14.2924C53.915 14.1394 54.0299 13.9864 54.0682 13.8079C54.1193 13.1067 54.1448 12.4819 54.0171 11.8317C53.915 11.5385 53.8767 11.258 54.081 11.0412C53.9278 11.003 53.8767 10.8117 53.8129 10.7097C53.532 9.57501 53.4171 8.30004 53.0724 7.13982C53.0724 7.13982 53.1617 7.07607 53.1873 6.98683C53.0724 5.96685 52.2936 5.01062 51.9233 3.99065C51.8595 3.81216 51.5659 3.58266 51.4254 3.39142C51.4254 3.39142 51.4254 3.30217 51.451 3.21292C51.8467 3.26392 52.1531 3.64641 52.3574 3.93965C52.7787 4.52614 53.2511 5.17637 53.3788 5.83935C53.5958 6.42584 53.9278 7.03782 54.0554 7.61156C54.1448 7.99405 54.4129 8.23629 54.6044 8.55504C54.7066 8.84828 54.6555 9.10327 54.681 9.38377C54.7959 10.0467 54.9874 10.6715 55.1151 11.3345C55.2683 11.819 55.3449 12.3672 55.179 12.7752C54.9619 13.5274 55.4598 14.3561 55.6641 15.0319C55.779 15.3251 55.6386 15.6566 55.5109 15.8989C55.4981 15.9881 55.6386 16.1028 55.613 16.1921C55.4726 16.5236 55.5875 16.8168 55.5237 17.1611C55.4343 17.2248 55.6386 17.4543 55.5237 17.6073C55.4343 17.6838 55.3577 17.6583 55.2556 17.7348C55.1279 17.9771 55.2428 18.2703 55.1917 18.5253C54.9364 19.0098 55.064 19.66 54.5917 20.0042C54.4129 20.0552 54.4002 20.1445 54.3108 20.2082C54.3874 20.221 54.4512 20.323 54.5151 20.4377C54.4257 20.5015 54.3363 20.4887 54.247 20.5525C54.2214 20.7182 54.5534 20.935 54.6172 21.037C54.4895 21.7255 53.9788 22.3247 53.9916 23.1407C53.9533 23.3064 53.915 23.5742 53.8767 23.7399C53.7235 24.1479 53.4171 24.4411 53.2639 24.8619C53.2384 25.0276 52.9064 25.0531 52.8681 25.2189C52.6638 25.4356 52.6766 25.8054 52.5362 26.1368C52.4213 26.2898 52.1914 26.2388 51.9999 26.3791C51.7829 26.6851 51.8084 26.9656 51.668 27.2843C51.4254 27.6796 51.1445 28.113 50.9147 28.5083C50.6466 29.082 50.1998 29.6175 49.7146 30.051C49.638 30.0382 49.4593 30.0892 49.3699 30.153C49.1146 30.6375 48.8337 30.9945 48.2975 31.2367C48.2209 31.224 48.106 31.5937 48.0038 31.6575C47.6336 31.9252 47.4293 32.2439 46.9825 32.4989C46.8165 32.5499 46.7271 32.6137 46.5356 32.3077C45.9483 33.3404 45.1695 34.1436 44.3269 34.8576C43.8801 35.1126 43.4332 35.0871 43.1396 35.3804C42.1693 36.3238 40.6372 37.3311 40.4712 37.4713C40.3946 37.4586 40.101 37.8921 40.101 37.8921C39.7946 37.9176 39.9733 37.9431 39.6797 37.8921C39.6797 37.8921 39.6669 38.3765 39.2711 38.453C38.4413 38.6188 38.2242 39.575 38.1604 39.9703C38.1221 40.1742 37.9944 40.034 37.8923 40.1105C37.8029 40.187 37.8668 40.3145 37.7646 40.391C37.4071 40.6077 37.088 41.054 36.7943 41.3982C36.7049 41.4747 36.6411 41.36 36.539 41.4365C36.4496 41.513 36.0028 42.0612 35.8495 42.5457C35.4665 43.3872 35.058 44.1394 34.5345 44.7259C34.4069 44.8661 34.8282 45.4271 34.8026 45.6184C34.6877 45.8861 34.4452 45.9244 34.3303 46.1921C34.2281 46.8423 34.1898 47.5818 34.0749 48.283C33.8834 48.9588 34.126 49.4433 34.2154 50.0552C34.3175 50.5652 34.1898 51.2282 34.2154 51.7255C34.2537 52.1207 34.5218 52.5669 34.4835 52.9494C34.4962 53.5487 34.3558 53.4722 34.4835 53.9694C34.4707 54.2626 34.3686 54.5559 34.4324 54.7471C34.4069 55.1424 34.343 55.3846 34.3303 55.7671C34.2409 55.8564 34.0749 56.0476 34.0749 56.1368C34.0111 57.1186 33.3727 57.9728 32.7088 58.623C32.2875 58.8908 31.93 59.2988 31.4577 59.2605C31.2151 59.2478 30.4235 59.745 30.1554 59.8088C29.4532 60 28.8915 60.0128 28.2148 59.9108C27.4743 59.7068 26.8743 59.5283 26.3636 58.7633C26.0572 58.419 25.5337 58.5465 25.3422 58.0238C25.2784 57.8198 24.8571 57.7051 24.7805 57.6031C24.3847 57.2588 24.1804 56.8253 23.8868 56.3918C23.6953 55.8691 23.8357 55.5121 23.5931 55.0149C23.3505 54.7089 23.2484 54.4921 23.0058 54.1734C22.6867 53.7654 23.0824 53.1789 22.8399 52.7709C22.6739 52.6562 22.5079 52.4522 22.4313 52.2482C22.2781 51.853 22.3164 51.2665 22.0738 50.8457C21.9462 50.3357 22.0228 48.487 22.1249 47.9898C22.1377 47.8878 21.8568 47.7476 21.8696 47.6456C21.9079 46.9316 22.1632 46.2303 22.0994 45.4909C22.176 45.0956 22.1377 44.7769 22.4952 44.4326C22.4952 44.4326 22.3292 44.2924 22.3419 44.1904C22.5462 43.6167 22.5462 43.1704 22.6611 42.5712C22.6739 42.4692 22.8909 42.4054 22.9037 42.3162C22.7888 41.8827 22.776 40.9902 22.8526 40.595C22.8909 40.391 23.4016 40.0977 23.5293 39.9193C23.5421 39.8173 23.4527 39.5623 23.6442 39.218C23.6953 39.1288 23.8229 39.1543 23.9251 39.0778C23.9378 38.9758 23.874 38.861 23.8995 38.759C23.9506 38.4658 24.4485 38.249 24.4868 38.0451C24.6911 37.3693 25.023 37.0888 25.3805 36.5406C25.5082 36.2983 25.5593 36.0434 25.7635 35.8139C25.8529 35.7501 25.904 35.8139 25.9167 35.7246C25.9295 35.6354 25.8912 35.4441 25.904 35.3676C26.1082 35.1381 26.3764 34.9341 26.4274 34.6791C26.5679 34.3476 26.6828 34.1181 26.887 33.8887C27.2573 33.6082 27.6275 33.3404 27.8573 32.9452C28.0616 32.7157 28.2914 32.7667 28.4829 32.5499C28.7766 32.2567 28.8532 31.8232 29.0702 31.5172C29.5809 30.918 30.1299 30.4972 30.6789 30.0892C31.1385 29.745 31.7258 29.6048 32.1726 29.3498C32.6322 29.0055 32.9131 28.3553 33.36 28.1003C33.6281 27.8963 33.96 27.8708 34.2409 27.6668C34.5218 27.4628 34.7516 27.0676 35.1601 26.9783C36.0794 26.7361 35.4155 26.9911 36.2836 26.6468C36.8198 26.3153 36.6028 26.2261 37.139 25.9074C38.0327 25.3846 38.4923 25.0659 38.5689 25.0786C38.6583 25.0149 38.7477 24.9384 38.786 24.7726C39.003 24.4666 40.1393 23.6634 40.3053 23.6124C40.4712 23.5614 40.6755 23.7782 40.867 23.5614C40.9692 23.4084 40.7649 23.2682 40.867 23.1152C41.1607 22.8219 41.4415 22.4267 41.7224 22.2227C41.8118 22.1589 42.0416 22.2864 42.2076 22.2354C42.2969 22.1717 42.3352 21.9932 42.4246 21.9295C42.5395 21.7765 42.3352 21.547 42.4374 21.394C42.5651 21.1517 42.6927 20.9095 42.8587 20.8585C43.1268 20.7437 43.4843 20.5525 43.446 20.3612C43.5098 20.017 43.6503 19.6855 44.0077 19.4943C44.0205 19.405 44.046 19.3158 44.0588 19.2393C44.2631 19.0098 44.4546 18.8823 44.6589 18.6528C44.8759 18.3468 44.7865 17.9643 44.9142 17.7221C45.3227 17.2758 45.7185 16.9188 45.8207 16.3068C45.7951 16.0264 45.6164 15.6311 45.7441 15.3889C45.8462 15.2359 46.1909 15.1339 46.2292 14.9681C46.293 14.6239 46.1143 14.2286 46.1015 13.8717C46.1526 13.6167 46.4335 13.3999 46.3952 13.1322C46.3696 12.4054 46.4079 11.7042 46.3058 10.9647C46.5484 10.9265 46.5867 10.7607 46.6122 10.5822C46.5484 10.034 46.2292 9.52401 46.0888 8.95028C46.076 8.59329 46.3696 8.30004 46.3569 7.94305C46.3186 7.66256 46.0632 7.34382 45.7696 7.10157C45.5015 6.77008 45.6802 6.27284 45.5781 5.9031C45.5015 5.44411 45.1568 5.08712 45.0929 4.53889C45.0674 4.25839 44.7355 4.28389 44.6206 3.99065C44.5312 3.60816 44.429 3.23842 44.429 2.77943C44.378 2.58819 44.1354 2.62643 43.995 2.51169C43.6758 1.98895 43.7907 0.943476 43.1013 0.701232C43.1651 0.356991 42.8459 0.280493 42.7438 0C43.1523 0 43.5353 0.165746 43.7652 0.675733C43.829 0.777731 44.0588 0.828729 44.1354 0.854229C44.3397 1.07097 44.3269 1.60646 44.5439 1.74671C44.8248 1.98895 45.2461 1.8997 45.361 2.19295C45.5142 2.67743 45.8845 2.93243 46.0505 3.32767C46.0377 3.41691 46.076 3.60816 46.1398 3.71016C46.4207 3.9524 46.459 4.22014 46.6505 4.44964C47.1229 4.99788 47.5953 5.55886 47.3783 6.31109C47.2378 6.64258 47.6591 6.55334 47.7868 6.75733C48.106 7.28007 47.9783 7.96855 48.3869 8.41479C48.3102 9.29452 48.7316 10.0977 48.9997 10.8755C48.5401 11.5767 48.7954 12.8134 49.1529 13.5274C49.1529 13.5274 49.4082 13.4892 49.421 13.4127C49.4976 12.9919 50.2764 12.8389 50.1487 12.6349C49.9955 12.1504 49.7529 11.1432 49.7529 10.697C49.804 9.983 49.8295 9.37102 49.7146 8.63153C49.6508 8.52954 49.587 8.42754 49.5231 8.32554C49.4338 7.94305 49.3316 7.56056 49.4082 7.13982C49.3572 6.94858 49.2167 6.83383 49.1656 6.64258C49.1784 6.55334 49.2167 6.38759 49.2295 6.29834C49.4082 6.24734 49.6253 6.38759 49.7785 6.42584C49.9189 6.54059 49.7912 6.78283 49.8551 6.88483C50.1104 7.29282 50.4807 7.47131 50.5573 7.9303C50.5445 8.01955 50.5062 8.1853 50.4934 8.27454C50.5573 8.82278 50.8892 9.25627 50.9658 9.71526C51.0041 9.983 50.7615 10.3782 50.8764 10.6842C51.2339 11.3855 51.2467 12.2014 51.1956 12.9919C51.1318 13.3362 51.5659 13.6167 51.451 13.8462C51.3233 14.0884 51.4893 14.1266 51.3616 14.3689C51.3488 14.4581 51.1701 14.5091 51.1573 14.5984C51.3871 15.0956 51.0424 15.8479 50.953 16.2813C50.9403 16.3706 51.2211 16.4598 51.285 16.1411C51.3233 15.9499 51.6425 15.9499 51.8212 15.8989C52.0127 15.7586 52.1531 15.4271 52.1404 15.0701L52.217 15.0446ZM53.9022 16.7658C53.915 16.3323 54.1193 16.0136 54.0427 15.5419C53.8895 15.0574 53.532 15.5419 53.2767 15.5674C53.4171 16.1411 53.1873 16.5236 53.0085 17.0336C52.9064 17.1866 52.817 17.6201 53.0724 17.5818C53.4682 17.6711 53.8895 17.2886 53.9022 16.7658ZM53.2384 19.1245C53.3405 18.9843 53.2894 18.7038 53.149 18.589C52.9319 18.4488 52.6511 18.6655 52.5234 18.895C52.3957 19.1373 52.4979 19.5198 52.8298 19.4943C52.9064 19.507 53.1362 19.2775 53.2511 19.1245H53.2384Z" fill="#0081C8"/>
<path d="M48.6167 4.43679C49.038 4.75554 49.204 5.27827 49.5359 5.71176L49.4976 5.89026C48.9231 6.3875 48.4124 5.55877 48.2592 5.07428C48.0294 4.57704 47.7868 4.0798 47.3655 3.71006C47.3783 3.62081 47.4038 3.54432 47.4166 3.45507C47.2123 3.22557 46.9442 2.90683 47.2123 2.77934C47.3272 2.62634 47.5187 2.93233 47.7358 3.07258C48.0677 3.50607 48.1316 4.0543 48.6295 4.43679H48.6167Z" fill="#0081C8"/>
<path d="M50.9907 2.23119C50.9907 2.32043 50.8503 2.47343 50.8375 2.54993C50.5694 2.29493 50.2886 2.03994 50.0587 1.6192C49.9821 1.5937 49.8289 1.55545 49.7651 1.45346C49.6885 1.42796 49.7013 1.35146 49.7268 1.26221C49.9821 1.23671 50.1737 1.4662 50.3907 1.6192C50.4673 1.6447 50.5694 1.58095 50.646 1.5937C50.8631 1.73395 50.978 1.95069 51.0035 2.23119H50.9907Z" fill="#0081C8"/>
<path d="M15.5242 18.0663C15.6008 18.13 15.7157 18.232 15.7668 18.3085C15.8945 18.3978 16.0221 18.3978 16.1626 18.3468C16.2902 18.3468 16.4051 18.691 16.5456 18.7038C16.7371 18.793 16.852 19.1245 17.0435 19.2902C17.1712 19.3667 17.2988 19.4942 17.4265 19.5707C17.6053 19.8002 17.7202 20.0297 17.9117 20.1827C18.0266 20.3357 18.2308 20.2847 18.3713 20.2847C18.6266 20.374 18.7288 20.7437 18.9075 20.9732C18.9713 20.9732 19.0862 21.2027 19.0862 21.2792C19.2139 21.3557 19.3288 21.5087 19.5203 21.5979C19.5714 21.6744 19.5714 21.8147 19.6225 21.8912C20.0948 22.6562 20.7204 23.1407 21.1162 23.9566C21.1162 23.9566 21.1673 24.1096 21.1673 24.1734C21.6524 24.6451 21.8695 25.3208 22.2908 25.8563C22.4057 26.0858 22.5078 26.4556 22.6227 26.7488C22.7504 26.9018 22.8653 26.9911 22.993 27.1441C23.1717 27.45 23.3377 27.8198 23.376 28.1895C23.376 28.3298 23.2739 28.7633 23.0185 28.521C22.7121 28.2023 22.7376 27.7815 22.4312 27.5393C22.4312 27.4628 22.3546 27.2843 22.2908 27.2078C22.1631 27.0548 21.9461 27.0676 21.895 26.8508C21.9078 26.6341 21.6652 26.4556 21.5503 26.3153C21.2439 25.8691 20.7843 25.7033 20.414 25.2571C20.3502 25.2571 20.2736 25.2571 20.2097 25.3208C20.1459 25.4611 19.9416 25.6651 20.1204 25.8946C20.3757 26.0476 20.5034 26.3408 20.8226 26.5066C21.0141 26.6596 21.0651 27.0931 21.18 27.4628C21.3077 27.6158 21.4354 27.756 21.6269 27.8453C21.8184 27.9983 21.7418 28.2278 21.9205 28.4573C21.9205 28.5338 21.8439 28.5975 21.8439 28.6613C21.9588 28.8908 22.2269 28.8398 22.4057 29.0693C22.5461 28.9418 22.7376 29.0438 22.8525 29.2478C22.6355 29.4517 22.6993 29.592 22.61 29.8087C22.3929 30.153 22.8908 30.4845 23.21 30.6502C23.4143 30.663 23.376 31.02 23.5675 31.1857C23.6824 31.4152 24.0143 31.4407 24.1803 31.7467C24.2314 31.8997 24.1037 31.9507 24.0271 32.0909C24.0143 32.3077 24.2697 32.3969 24.3974 32.4862C24.525 32.5754 24.5761 32.7157 24.6272 32.8687C24.4229 32.9197 24.0399 32.6519 23.8356 32.6392C23.7079 32.5882 23.4781 32.3077 23.2228 32.2439C23.1334 32.2184 23.0696 32.4352 22.9802 32.4097C22.8653 32.3842 22.7376 32.3587 22.61 32.3332C22.4695 32.3077 22.1376 31.9379 21.9971 31.9252C21.8312 31.8997 21.6269 32.1929 21.4737 32.1674C20.8864 32.0654 20.8609 32.0272 20.6694 31.9507C20.4523 31.8614 20.2353 31.7594 20.0438 31.6447C19.9161 31.5809 19.9544 31.4024 19.8267 31.3259C19.7118 31.2494 19.4437 31.2495 19.3288 31.173C18.8564 30.8797 18.4096 30.2295 18.001 30.0127C17.7329 29.8725 17.5159 29.7322 17.2095 29.592C17.069 29.5027 16.9541 29.2987 16.7754 29.235C16.2136 29.0438 15.7668 28.6995 15.1412 28.521C13.9411 28.1768 12.9453 28.8653 11.9622 29.3752C11.9111 29.3752 11.809 29.3752 11.7579 29.4007C11.5281 29.592 11.2728 29.694 11.043 29.847C10.7366 30.0892 10.3152 30.153 9.98329 30.3442C9.88116 30.408 9.86839 30.5992 9.76625 30.663C9.61305 30.7522 9.3194 30.7777 9.1662 30.867C9.02576 30.9562 9.01299 31.122 8.87255 31.2367C8.59168 31.4662 8.32357 31.6447 7.94055 31.8232C7.72351 31.9379 5.92335 32.2439 5.62971 32.2439C5.17009 32.2439 4.83815 32.6264 4.14872 32.6264C3.10182 32.6264 2.04215 32.6009 1.17399 31.9507C0.995248 31.7977 0.956946 31.3514 0.829275 31.2749C0.446262 31.0327 0.484563 30.5227 0.382426 30.153C0.254755 30.0765 -0.000586903 30.051 0.0121802 29.8342C0.152618 28.7633 0.688837 27.7943 1.33996 27.0548C1.49316 26.7743 1.82511 26.6596 1.86341 26.3026C1.86341 26.3026 2.4507 25.4866 2.80818 25.1551C2.88478 25.0149 2.76988 24.7854 2.84648 24.6579C3.3827 23.6124 4.353 22.8984 5.15732 21.9549C5.37437 21.7509 5.5148 21.4832 5.85952 21.4322C5.99995 21.4322 6.12762 21.4577 6.20423 21.3174C6.35743 20.9732 6.63831 20.782 6.84258 20.6417C7.60861 20.119 8.24696 19.3412 9.11513 19.201C9.25557 19.1373 9.33217 18.997 9.45984 18.9333C9.60028 18.8058 9.85562 18.9588 9.99606 18.9078C10.6472 18.6145 11.2345 17.9898 11.8984 17.9005C12.0388 17.8368 12.1154 17.6965 12.1792 17.7093C12.7665 17.7603 13.4687 17.2375 14.0177 17.7858C14.5156 17.6838 15.2689 17.7858 15.5753 18.0535L15.5242 18.0663ZM20.0438 24.3774C20.0438 24.3009 20.0438 24.2371 20.0438 24.1606C19.7884 24.0076 19.6735 23.5614 19.3416 23.4721C19.2777 23.4721 19.1373 23.5359 19.1373 23.6124C19.1245 24.0459 19.3033 24.3391 19.482 24.7089C19.5586 24.4284 19.7501 24.4411 19.8778 24.6579C19.9416 24.5941 20.0182 24.4539 20.0182 24.3774H20.0438Z" fill="#00943B"/>
<path d="M83.0252 44.5474L80.0505 47.6456L71.7774 39.5878C70.6922 41.513 69.39 43.145 67.8834 44.4964C66.3769 45.8352 64.8704 46.9316 63.3766 47.7731L60.4785 44.4709C62.1127 43.655 63.5043 42.7115 64.6534 41.6278C65.8024 40.544 66.7472 39.3966 67.4877 38.2108C68.2154 37.0124 68.7516 35.8012 69.0963 34.5517C69.4283 33.3022 69.607 32.0782 69.607 30.8925V25.1934H74.1776V30.0766C74.1776 31.0328 74.1138 31.938 73.9989 32.805C73.8712 33.672 73.718 34.5134 73.5265 35.3294L83.0252 44.5729V44.5474ZM92.4857 58.5466H88.1576V36.7191H79.144V32.5627H88.1576V21.4833H92.4857V58.5466Z" fill="white"/>
<path d="M131.604 42.3545H116.156V44.3944H123.816V53.9567H109.019V55.7926H124.799V59.949H104.538V50.017H119.297V48.3851H104.334V44.3944H111.79V42.3545H96.6605V38.2873H131.604V42.3545ZM123.446 29.2478C123.446 30.4208 123.191 31.479 122.693 32.448C122.195 33.417 121.518 34.2457 120.675 34.9469C119.807 35.6227 118.773 36.1581 117.599 36.5406C116.411 36.9231 115.134 37.1144 113.743 37.1144C112.441 37.1144 111.215 36.9359 110.053 36.5789C108.891 36.2219 107.87 35.7119 106.976 35.0362C106.108 34.3604 105.419 33.5317 104.921 32.5755C104.423 31.6065 104.168 30.5228 104.168 29.2988C104.168 28.0748 104.41 26.9656 104.895 25.9839C105.38 24.9894 106.07 24.1479 106.938 23.434C107.781 22.7327 108.789 22.1845 109.951 21.802C111.113 21.4195 112.377 21.2283 113.743 21.2283C115.109 21.2283 116.335 21.4195 117.509 21.802C118.697 22.1845 119.718 22.72 120.586 23.434C121.454 24.1097 122.144 24.9512 122.667 25.9329C123.178 26.9274 123.446 28.0366 123.446 29.2478ZM118.965 29.1968C118.965 27.9219 118.454 26.9146 117.42 26.1879C116.386 25.4484 115.16 25.0914 113.756 25.0914C112.351 25.0914 111.062 25.4484 110.066 26.1751C109.07 26.8891 108.585 27.9091 108.585 29.2096C108.585 30.51 109.083 31.4408 110.066 32.142C111.062 32.8432 112.287 33.2002 113.756 33.2002C115.224 33.2002 116.386 32.8815 117.42 32.2312C118.454 31.581 118.965 30.5738 118.965 29.2223V29.1968Z" fill="white"/>
<path d="M168.31 45.0192H133.417V40.9138H168.31V45.0192ZM160.726 59.9363H156.359V51.445H140.745V47.2886H160.726V59.9363ZM160.649 38.7846H140.911V22.7455H160.394V26.8509H145.227V28.5976H159.909V32.754H145.227V34.6664H160.636V38.7718L160.649 38.7846Z" fill="white"/>
<path d="M187.882 40.4293H171.284V23.4977H175.6V28.3808H183.515V23.4977H187.882V40.4293ZM183.515 36.3239V32.499H175.6V36.3239H183.515ZM200.151 59.9363H180.132V49.7111H194.686V47.5946H179.928V43.4765H199.168V53.7017H184.702V55.8181H200.151V59.9363ZM200.483 42.3035H196.206V38.3511H189.197V34.2712H196.206V31.3388H189.197V27.2206H196.206V21.4833H200.483V42.3035Z" fill="white"/>
<path d="M227.077 44.6749L224.102 47.7731L215.867 39.6771C214.807 41.6278 213.518 43.2852 212.011 44.6239C210.505 45.9626 208.973 47.0591 207.428 47.9006L204.53 44.5984C206.19 43.706 207.594 42.7115 208.756 41.6278C209.905 40.544 210.85 39.4093 211.59 38.2491C212.292 37.0506 212.816 35.8522 213.16 34.6282C213.505 33.4042 213.671 32.193 213.671 31.0073V25.1807H218.242V30.1913C218.242 31.1475 218.178 32.04 218.063 32.8942C217.935 33.7485 217.782 34.5644 217.591 35.3549L227.089 44.6749H227.077ZM236.001 58.5466H231.634V21.496H236.001V58.5466Z" fill="white"/>
</g>
<defs>
<clipPath id="clip0_536_2493">
<rect width="236" height="60" fill="white"/>
</clipPath>
</defs>
</svg>
