<svg width="40" height="40" viewBox="0 0 40 40" fill="none" xmlns="http://www.w3.org/2000/svg">
<path d="M18.2251 22.8984L26.7914 14.3676L25.2914 12.8847L18.2193 19.968L14.6835 16.4264L13.1922 17.9009L18.2251 22.8984ZM2.30762 33.718V31.6239H37.6918V33.718H2.30762ZM6.77345 29.5514C6.05706 29.5514 5.44345 29.2959 4.93262 28.7851C4.42178 28.2743 4.16637 27.6608 4.16637 26.9447V8.8251C4.16637 8.10871 4.42178 7.4951 4.93262 6.98427C5.44345 6.47343 6.05706 6.21802 6.77345 6.21802H33.226C33.9423 6.21802 34.556 6.47343 35.0668 6.98427C35.5776 7.4951 35.833 8.10871 35.833 8.8251V26.9447C35.833 27.6608 35.5776 28.2743 35.0668 28.7851C34.556 29.2959 33.9423 29.5514 33.226 29.5514H6.77345ZM6.77345 27.4576H33.226C33.3543 27.4576 33.4719 27.4041 33.5789 27.2972C33.6855 27.1902 33.7389 27.0727 33.7389 26.9447V8.8251C33.7389 8.69677 33.6855 8.57913 33.5789 8.47219C33.4719 8.36552 33.3543 8.31218 33.226 8.31218H6.77345C6.64512 8.31218 6.52748 8.36552 6.42053 8.47219C6.31387 8.57913 6.26053 8.69677 6.26053 8.8251V26.9447C6.26053 27.0727 6.31387 27.1902 6.42053 27.2972C6.52748 27.4041 6.64512 27.4576 6.77345 27.4576Z" fill="white"/>
</svg>
