<svg width="40" height="40" viewBox="0 0 40 40" fill="none" xmlns="http://www.w3.org/2000/svg">
<path d="M10.7891 18.9053C11.4688 18.9053 12.0469 19.1453 12.5225 19.625C12.9982 20.1047 13.2363 20.6854 13.2363 21.3672C13.2363 22.0488 12.9988 22.6263 12.5244 23.0996C12.05 23.5732 11.4727 23.8105 10.793 23.8105C10.1137 23.8105 9.53603 23.5746 9.06055 23.1035C8.58492 22.6328 8.34675 22.0533 8.34668 21.3652C8.34668 20.6819 8.58415 20.1004 9.05859 19.6221C9.5329 19.1442 10.1099 18.9054 10.7891 18.9053Z" fill="white"/>
<path fill-rule="evenodd" clip-rule="evenodd" d="M10.793 12.8984C13.2696 12.8984 15.341 13.7441 17.0068 15.4346C18.6724 17.1248 19.5059 19.242 19.5059 21.7861C19.5059 22.8847 19.2638 23.9876 18.7803 25.0947C18.2967 26.2018 17.6938 27.2616 16.9717 28.2734C16.1311 29.4659 15.2139 30.565 14.2217 31.5703C13.2296 32.5754 12.3411 33.4339 11.5557 34.1455H35.833V35.834H4.16699V34.1455H10C9.21094 33.4225 8.32567 32.5588 7.34473 31.5537C6.36362 30.5484 5.45286 29.4545 4.6123 28.2734C3.89009 27.2615 3.28732 26.2019 2.80371 25.0947C2.3201 23.9875 2.07812 22.8847 2.07812 21.7861C2.07813 19.242 2.91146 17.1248 4.57812 15.4346C6.2447 13.7441 8.31621 12.8985 10.793 12.8984ZM10.791 14.9932C8.8603 14.9932 7.27426 15.629 6.0332 16.9014C4.79237 18.1741 4.17188 19.802 4.17188 21.7842C4.17189 22.6897 4.40204 23.6236 4.8623 24.585C5.32282 25.5465 5.89236 26.4836 6.57031 27.3965C7.24834 28.3098 7.96518 29.163 8.7207 29.9561C9.47654 30.7494 10.1673 31.4391 10.792 32.0244C11.4167 31.4391 12.1065 30.7494 12.8623 29.9561C13.6179 29.163 14.3346 28.3098 15.0127 27.3965C15.6907 26.4836 16.2602 25.5445 16.7207 24.5791C17.181 23.6135 17.4111 22.6808 17.4111 21.7822C17.4111 19.8008 16.7907 18.1738 15.5498 16.9014C14.3084 15.6291 12.7218 14.9932 10.791 14.9932Z" fill="white"/>
<path d="M33.2266 4.16699C33.9428 4.16707 34.5566 4.42284 35.0674 4.93359C35.578 5.44436 35.833 6.05819 35.833 6.77441V21.7227C35.833 22.4389 35.5781 23.0527 35.0674 23.5635C34.5566 24.0742 33.9428 24.329 33.2266 24.3291H27.4102L24.6533 28.7412L21.9912 24.4648L23.085 22.2354L24.6533 24.7695L26.2373 22.2354H33.7393V6.77441C33.7393 6.62469 33.6908 6.50138 33.5947 6.40527C33.4987 6.30933 33.3761 6.26082 33.2266 6.26074H16.6416C16.4993 6.26084 16.3779 6.30926 16.2783 6.40527C16.1787 6.50136 16.1289 6.62478 16.1289 6.77441V10.3291H14.0352V6.77441C14.0352 6.05821 14.2905 5.44435 14.8008 4.93359C15.3115 4.42287 15.9254 4.1671 16.6416 4.16699H33.2266Z" fill="white"/>
<path fill-rule="evenodd" clip-rule="evenodd" d="M25.7158 8.67773C26.5466 8.67774 27.281 8.94351 27.9072 9.47363C28.5439 10.0128 28.8662 10.7104 28.8662 11.5469C28.8662 12.0134 28.7572 12.4418 28.5371 12.8262L28.4355 12.9883C28.2426 13.2732 28.009 13.5089 27.7383 13.6973C28.0978 13.88 28.4082 14.1413 28.666 14.4805C29.0271 14.956 29.206 15.5123 29.2061 16.1387C29.2061 17.0441 28.8565 17.7866 28.1631 18.3418C27.4871 18.8826 26.7157 19.1553 25.8584 19.1553H21.7412V8.67773H25.7158ZM23.5371 17.4863H25.7852C26.2594 17.4863 26.6384 17.3398 26.9404 17.0547C27.2456 16.7666 27.3915 16.4312 27.3916 16.0361C27.3916 15.6503 27.2472 15.3184 26.9424 15.0293C26.6429 14.7454 26.2615 14.5977 25.7783 14.5977H23.5371V17.4863ZM23.5371 12.9746H25.6348C26.0477 12.9746 26.389 12.8458 26.6719 12.5908C26.9505 12.3397 27.0869 12.033 27.0869 11.6533C27.0869 11.273 26.9489 10.9658 26.667 10.7139C26.3787 10.4563 26.0413 10.3271 25.6426 10.3271H23.5371V12.9746Z" fill="white"/>
</svg>
