<svg width="40" height="40" viewBox="0 0 40 40" fill="none" xmlns="http://www.w3.org/2000/svg">
<path d="M15.3201 13.6751V11.5813H29.6793V13.6751H15.3201ZM15.3201 18.483V16.3888H29.6793V18.483H15.3201ZM20.2776 35.8334H9.70051C8.62329 35.8334 7.7094 35.4581 6.95884 34.7076C6.20829 33.957 5.83301 33.0431 5.83301 31.9659V26.8592H10.833V4.16675H34.1663V18.6688C33.8066 18.6455 33.4515 18.6606 33.1009 18.7142C32.7504 18.7681 32.4075 18.8577 32.0722 18.983V6.26092H12.9272V26.8592H23.4418L21.348 28.953H7.92717V31.9659C7.92717 32.4684 8.09773 32.8897 8.43884 33.2297C8.77967 33.5694 9.19092 33.7392 9.67259 33.7392H20.2776V35.8334ZM23.5255 35.8334V31.4297L32.5734 22.423C32.7806 22.2158 33.005 22.0699 33.2463 21.9855C33.4877 21.9013 33.7293 21.8592 33.9709 21.8592C34.2293 21.8592 34.4819 21.9083 34.7288 22.0063C34.9755 22.1047 35.1972 22.2522 35.3938 22.4488L36.9355 24.0063C37.1263 24.2138 37.2681 24.4383 37.3609 24.6797C37.4534 24.9211 37.4997 25.1624 37.4997 25.4038C37.4997 25.6452 37.4501 25.8909 37.3509 26.1409C37.252 26.3909 37.1087 26.6195 36.9209 26.8267L27.9293 35.8334H23.5255ZM25.5126 33.8463H27.0959L32.5059 28.4101L31.7401 27.6184L30.9643 26.8367L25.5126 32.263V33.8463ZM31.7401 27.6184L30.9643 26.8367L32.5059 28.4101L31.7401 27.6184Z" fill="white"/>
</svg>
